<svg width="28" height="29" viewBox="0 0 28 29" fill="none" xmlns="http://www.w3.org/2000/svg">
<path d="M16.3333 17.9999C16.6639 17.9999 16.9509 17.8782 17.1943 17.6348C17.4378 17.3913 17.5591 17.1047 17.5583 16.7749C17.5583 16.4444 17.4366 16.1578 17.1932 15.9151C16.9497 15.6724 16.6631 15.5507 16.3333 15.5499C16.0028 15.5499 15.7158 15.6716 15.4723 15.9151C15.2289 16.1585 15.1076 16.4451 15.1083 16.7749C15.1083 17.1055 15.2301 17.3925 15.4735 17.6359C15.717 17.8794 16.0036 18.0007 16.3333 17.9999ZM15.4583 14.2666H17.2083C17.2083 13.7027 17.2667 13.2893 17.3833 13.0264C17.5 12.7635 17.7722 12.4186 18.2 11.9916C18.7833 11.4083 19.1722 10.9369 19.3667 10.5776C19.5611 10.2183 19.6583 9.79514 19.6583 9.30825C19.6583 8.43325 19.3519 7.71886 18.739 7.16509C18.1261 6.61131 17.3242 6.33403 16.3333 6.33325C15.5361 6.33325 14.8408 6.55686 14.2473 7.00409C13.6539 7.45131 13.2409 8.04436 13.0083 8.78325L14.5833 9.42492C14.7583 8.93881 14.9967 8.57403 15.2985 8.33059C15.6003 8.08714 15.9452 7.96581 16.3333 7.96659C16.8 7.96659 17.1792 8.09803 17.4708 8.36092C17.7625 8.62381 17.9083 8.97848 17.9083 9.42492C17.9083 9.69714 17.8306 9.95498 17.675 10.1984C17.5195 10.4419 17.2472 10.7479 16.8583 11.1166C16.2167 11.6805 15.8231 12.1226 15.6777 12.4431C15.5322 12.7635 15.4591 13.3714 15.4583 14.2666ZM9.33335 21.4999C8.69168 21.4999 8.14218 21.2713 7.68485 20.8139C7.22751 20.3566 6.99923 19.8075 7.00001 19.1666V5.16659C7.00001 4.52492 7.22868 3.97542 7.68601 3.51809C8.14335 3.06075 8.69246 2.83248 9.33335 2.83325H23.3333C23.975 2.83325 24.5245 3.06192 24.9818 3.51925C25.4392 3.97659 25.6675 4.5257 25.6667 5.16659V19.1666C25.6667 19.8083 25.438 20.3578 24.9807 20.8151C24.5233 21.2724 23.9742 21.5007 23.3333 21.4999H9.33335ZM9.33335 19.1666H23.3333V5.16659H9.33335V19.1666ZM4.66668 26.1666C4.02501 26.1666 3.47551 25.9379 3.01818 25.4806C2.56085 25.0233 2.33257 24.4741 2.33335 23.8333V7.49992H4.66668V23.8333H21V26.1666H4.66668Z" fill="white"/>
</svg>
