<svg width="48" height="48" viewBox="0 0 48 48" fill="none" xmlns="http://www.w3.org/2000/svg">
<path d="M34.6556 26.2907L27.9834 26.3903L30.473 21.2118L30.5726 21.1123L30.971 20.1164C31.0705 19.8177 30.971 19.5189 30.7718 19.3197L24.6971 13.743L31.5685 13.3446C32.2656 13.3446 32.7635 12.7471 32.7635 12.05C32.7635 11.3529 32.166 10.855 31.4689 10.9546L23.0042 11.3529C22.3071 11.3529 21.7095 11.6517 21.3112 12.05L19.2199 13.743C18.3237 14.4401 18.3237 15.7347 19.1203 16.4318L22.7054 19.6185L12.9461 21.411C12.0498 21.6102 11.4523 22.5065 11.5519 23.5023C11.751 24.299 12.4481 24.8965 13.2448 24.8965C13.3444 24.8965 13.444 24.8965 13.5436 24.8965L25.9917 22.4069L23.6017 27.3861C23.3029 27.884 23.4025 28.5811 23.7012 29.0791C24 29.577 24.5975 29.8757 25.0954 29.8757L34.556 29.7762C35.4523 29.7762 36.249 28.9795 36.249 28.0832C36.3485 27.0874 35.6515 26.2907 34.6556 26.2907Z" fill="white"/>
<path d="M16.8299 13.4437C18.6224 13.4437 20.1162 11.9499 20.1162 10.1574C20.1162 8.36487 18.6224 6.87109 16.8299 6.87109C14.9378 6.87109 13.5436 8.36487 13.5436 10.1574C13.444 11.9499 14.9378 13.4437 16.8299 13.4437Z" fill="white"/>
<path d="M24 0C10.2573 0 0 10.2573 0 24C0 37.7427 10.2573 48 24 48C37.7427 48 48 37.7427 48 24C48 10.2573 37.7427 0 24 0ZM37.1452 39.5353H21.2116V27.1867H19.2199V41.527H34.3568C31.3693 43.2199 27.8838 44.2158 24.0996 44.2158C12.5477 44.2158 4.18257 35.751 4.18257 24.0996C4.18257 12.4481 12.5477 3.9834 24.0996 3.9834C35.6515 3.9834 44.0166 12.5477 44.0166 24.0996C43.917 30.473 41.3278 35.9502 37.1452 39.5353Z" fill="white"/>
</svg>
