<svg width="57" height="57" viewBox="0 0 57 57" fill="none" xmlns="http://www.w3.org/2000/svg">
<path d="M0 28.5C0 44.2394 12.7606 57 28.5 57C44.2394 57 57 44.2394 57 28.5C57 12.7606 44.2394 0 28.5 0C12.7606 0 0 12.7606 0 28.5ZM29.1371 15.9819C29.3416 16.1847 29.5041 16.4258 29.6153 16.6913C29.7266 16.9569 29.7845 17.2418 29.7856 17.5297C29.7867 17.8177 29.7312 18.103 29.622 18.3695C29.5129 18.6359 29.3523 18.8783 29.1495 19.0827L21.9806 26.3077H40.2837C40.8651 26.3077 41.4227 26.5387 41.8339 26.9498C42.245 27.3609 42.476 27.9186 42.476 28.5C42.476 29.0814 42.245 29.6391 41.8339 30.0502C41.4227 30.4613 40.8651 30.6923 40.2837 30.6923H21.9806L29.1495 37.9173C29.3523 38.1219 29.5128 38.3644 29.6218 38.6311C29.7309 38.8977 29.7864 39.1832 29.7851 39.4712C29.7838 39.7593 29.7258 40.0443 29.6144 40.3099C29.503 40.5756 29.3404 40.8167 29.1358 41.0194C28.9312 41.2222 28.6887 41.3827 28.422 41.4918C28.1554 41.6009 27.8699 41.6563 27.5819 41.6551C27.2938 41.6538 27.0088 41.5958 26.7432 41.4844C26.4775 41.373 26.2364 41.2103 26.0337 41.0057L15.1557 30.0442C14.7482 29.6336 14.5196 29.0785 14.5196 28.5C14.5196 27.9215 14.7482 27.3664 15.1557 26.9558L26.0337 15.9943C26.2365 15.7894 26.4777 15.6266 26.7435 15.5151C27.0094 15.4036 27.2946 15.3456 27.5828 15.3444C27.8711 15.3433 28.1568 15.399 28.4235 15.5084C28.6902 15.6178 28.9327 15.7787 29.1371 15.9819Z" fill="#003781"/>
</svg>
