<svg width="49" height="49" viewBox="0 0 49 49" fill="none" xmlns="http://www.w3.org/2000/svg">
<g clip-path="url(#clip0_306_6822)">
<path d="M30.5 9.8999C29.1 9.8999 28 10.9999 28 12.3999C28 13.7999 29.1 14.8999 30.5 14.8999C31.9 14.8999 33 13.7999 33 12.3999C33 10.9999 31.9 9.8999 30.5 9.8999Z" fill="white"/>
<path d="M21.3 13.6001C20.9 13.6001 20.5 13.7001 20.1 13.8001C18.3 14.4001 17.4 16.4001 18.1 18.2001C18.6 19.5001 19.9 20.4001 21.3 20.4001C21.7 20.4001 22.1 20.3001 22.5 20.2001C23.3 19.9001 24 19.2001 24.4 18.4001C24.8 17.6001 24.8 16.6001 24.5 15.8001C24 14.5001 22.7 13.6001 21.3 13.6001Z" fill="white"/>
<path d="M32.7 16.7998L33.7 25.3998H40.6L41.6 16.7998H32.7Z" fill="white"/>
<path d="M24.1 0C10.3 0 0 10.3 0 24.1C0 37.9 10.3 48.2 24.1 48.2C37.9 48.2 48.2 37.9 48.2 24.1C48.2 10.3 37.9 0 24.1 0ZM18.8 38.3L16.6 43C15.2 42.5 13.9 41.8 12.6 41L14.6 40.3C15.2 40.1 15.8 39.5 16 39L17.7 35L18.7 34.9L19 36.8C19.1 37.2 18.9 37.9 18.8 38.3ZM24.1 44.3C22.5 44.3 21 44.1 19.5 43.8L21.8 39.3C22 38.8 22.2 38 22.2 37.5L22.3 33.4L24.2 23.8L27 23.4C27.5 23.3 28 22.9 28.2 22.5L30.4 17.1C30.5 16.8 30.5 16.6 30.4 16.3C30.3 16 30.1 15.8 29.8 15.8L29.4 15.7C28.9 15.5 28.3 15.8 28 16.3L25.9 20.7C25.8 21 25.4 21.2 25.2 21.2L23 21.6L18.8 21.9C18.8 21.9 18.8 21.9 18.7 21.9C18.4 21.9 18.1 22 17.9 22.2L9.7 28.8C9.5 29 9.4 29.3 9.4 29.5C9.4 29.8 9.5 30 9.8 30.1L10.6 30.7C10.8 30.8 11.1 30.9 11.3 30.9C11.6 30.9 11.9 30.8 12.1 30.6L16.6 26.9L15.2 32.3C15.2 32.3 15.2 32.4 15.1 32.4L13.4 36.7C13.3 37.1 12.8 37.5 12.5 37.7L9.9 38.7C6.2 35.1 4 30 4 24C4 12.3 12.4 3.8 24 3.8C35.6 3.8 44 12.4 44 24C44.1 35.8 35.7 44.3 24.1 44.3Z" fill="white"/>
</g>
<defs>
<clipPath id="clip0_306_6822">
<rect width="48.2" height="48.2" fill="white"/>
</clipPath>
</defs>
</svg>
