<svg width="49" height="49" viewBox="0 0 49 49" fill="none" xmlns="http://www.w3.org/2000/svg">
<g clip-path="url(#clip0_573_5109)">
<path d="M24.1 0C10.3 0 0 10.3 0 24.1C0 37.9 10.3 48.2 24.1 48.2C37.9 48.2 48.2 37.9 48.2 24.1C48.2 10.3 37.9 0 24.1 0ZM24.1 44.3C20 44.3 16.3 43.2 13.3 41.3L13.4 41.2C14.6 38.9 15.8 36.7 17.1 34.5C17.5 33.7 17.6 32.8 17.8 32C18.2 30.4 18.6 28.8 18.9 27.2C19 26.9 19.2 26.9 19.3 26.9L19.6 27C20.1 27.1 20.8 27.4 21.1 28.2C21.5 29.4 22 30.5 22.5 31.7C22.8 32.4 22.8 33.2 22.9 34C23.2 36.3 23.5 38.6 23.9 41C24 41.8 24.5 42.3 25.3 42.6C25.6 42.6 25.9 42.6 26.2 42.6C26.3 42.6 26.4 42.5 26.5 42.5C27.2 42.2 27.7 41.4 27.6 40.6C27.5 40 27.4 39.5 27.4 38.9C27.1 37.1 26.9 35.2 26.7 33.4C26.5 32.1 26.3 30.8 25.8 29.6C25.3 28.6 25 27.6 24.6 26.5C24.5 26.3 24.5 26.1 24.5 25.9C24.8 24.5 25 23 25.3 21.6L25.6 19.9C26.3 20.2 27.1 20 27.5 19.1C27.8 18.4 28.1 17.8 28.4 17.1C28.5 16.9 28.5 16.7 28.2 16.6C27.6 16.3 27 16 26.5 15.7C25.9 15.4 26 15.4 25.7 16C25.6 16.3 25.5 16.3 25.3 16.1C25.1 15.9 24.9 15.8 24.7 15.6L25.2 14.5C25.2 14.5 25.2 14.5 25.2 14.4C25.4 13.9 25.3 13.8 24.5 13.6C23.4 13.4 22.3 13.2 21.2 13C20.8 12.9 20.3 12.8 19.9 12.8C18.7 12.9 18 13.7 17.7 14.9C17.1 17.9 16.6 20.8 16 23.8C15.5 26.6 14.7 29.3 14.1 32C14 32.5 13.9 32.9 13.6 33.4C12.5 35.4 11.5 37.3 10.4 39.3C6.6 35.7 4.2 30.5 4.2 24.3C4.2 12.6 12.6 4.1 24.2 4.1C35.8 4.1 44.2 12.7 44.2 24.3C44.1 35.8 35.7 44.3 24.1 44.3Z" fill="white"/>
<path d="M28.2 9.6002C28.5 9.5002 28.5 9.4002 28.5 9.1002C28.5 7.2002 26.9 5.7002 25.1 5.7002C22.9 5.7002 21.3 7.7002 21.7 9.8002C22 11.5002 23.8 12.8002 25.5 12.5002C25.8 12.5002 26 12.3002 26.1 12.1002C26.3 11.7002 26.5 11.3002 26.7 10.9002C27 10.2002 27.5 9.8002 28.2 9.6002Z" fill="white"/>
<path d="M36.4 14.9C35.1 15 33.8 15.2 32.5 15.3C32.3 15.3 32.2 15.4 32.2 15.6C32.3 16.4 32.3 17.2 32.4 18C32.4 18.2 32.5 18.3 32.7 18.2C33.3 18.1 33.8 18.1 34.4 18C34.6 18 34.8 18 35 18.2C35.4 18.6 35.9 18.9 36.4 18.9C37.6 18.9 38.5 18 38.5 16.8C38.5 15.8 37.5 14.8 36.4 14.9Z" fill="white"/>
<path d="M29.5 10.2002C28.7 10.2002 28.1 10.6002 27.7 11.3002C27.3 12.2002 26.8 13.1002 26.4 14.0002C26.3 14.2002 26.3 14.3002 26.5 14.4002C27.2 14.8002 27.9 15.1002 28.6 15.5002C28.8 15.6002 28.9 15.6002 29 15.4002C29.1 15.1002 29.3 14.9002 29.4 14.6002C29.5 14.4002 29.6 14.2002 29.9 14.2002C30.9 14.0002 31.7 13.1002 31.6 12.1002C31.5 11.0002 30.6 10.2002 29.5 10.2002Z" fill="white"/>
<path d="M31 15.5001C30.7 15.4001 30.2 15.6001 30.1 15.9001C29.8 16.6001 29.4 17.3001 29.1 18.1001C28.9 18.5001 28.9 18.5001 29.4 18.6001C29.6 18.6001 29.7 18.6001 29.9 18.6001C30.2 18.6001 30.6 18.5001 30.9 18.5001C31.4 18.5001 31.4 18.5001 31.4 18.1001C31.3 17.3001 31.3 16.6001 31.2 15.9001C31.1 15.7001 31.1 15.6001 31 15.5001Z" fill="white"/>
</g>
<defs>
<clipPath id="clip0_573_5109">
<rect width="48.2" height="48.2" fill="white"/>
</clipPath>
</defs>
</svg>
