<svg width="42" height="34" viewBox="0 0 42 34" fill="none" xmlns="http://www.w3.org/2000/svg">
<path d="M5.85675 33.7603H36.1425C39.7987 33.7603 41.6625 31.9318 41.6625 28.3108V9.90653C41.6625 6.28553 39.7987 4.47503 36.1425 4.47503H32.0295C30.6585 4.47503 30.237 4.19378 29.4458 3.31478L28.0215 1.73228C27.1605 0.766281 26.2642 0.238281 24.4358 0.238281H17.4398C15.6292 0.238281 14.7323 0.766281 13.854 1.73228L12.4297 3.31478C11.6565 4.17578 11.217 4.47503 9.846 4.47503H5.856C2.19975 4.47503 0.335999 6.28553 0.335999 9.90653V28.3108C0.335999 31.9318 2.2005 33.7603 5.85675 33.7603ZM20.991 28.1353C15.6818 28.1353 11.4105 23.8633 11.4105 18.5203C11.4105 13.1758 15.6817 8.90528 20.9902 8.90528C26.334 8.90528 30.588 13.1758 30.588 18.5203C30.588 23.8633 26.3167 28.1353 20.9902 28.1353M33.6285 14.2303C32.433 14.2303 31.449 13.2643 31.449 12.0688C31.449 11.4907 31.6786 10.9364 32.0874 10.5276C32.4961 10.1189 33.0505 9.88928 33.6285 9.88928C34.2065 9.88928 34.7609 10.1189 35.1696 10.5276C35.5784 10.9364 35.808 11.4907 35.808 12.0688C35.808 13.2643 34.824 14.2303 33.6285 14.2303ZM20.991 25.4638C21.9031 25.4649 22.8065 25.286 23.6494 24.9375C24.4924 24.5889 25.2582 24.0775 25.9032 23.4325C26.5482 22.7875 27.0596 22.0216 27.4082 21.1787C27.7567 20.3358 27.9356 19.4324 27.9345 18.5203C27.9355 17.6082 27.7566 16.7049 27.408 15.8621C27.0593 15.0192 26.5479 14.2534 25.903 13.6085C25.258 12.9636 24.4921 12.4523 23.6493 12.1038C22.8064 11.7553 21.9031 11.5764 20.991 11.5775C17.1585 11.5775 14.0655 14.6713 14.0655 18.5203C14.0655 22.37 17.1765 25.4638 20.991 25.4638Z" fill="white"/>
</svg>
