<svg width="22" height="22" viewBox="0 0 22 22" fill="none" xmlns="http://www.w3.org/2000/svg">
<circle cx="11" cy="11" r="10.208" fill="#122B54" stroke="white" stroke-width="1.58399"/>
<path d="M14.2106 7.47376L13.6211 6.25271C13.4948 5.95797 13.2001 5.78955 12.8632 5.78955H9.70533C9.36849 5.78955 9.07375 5.95797 8.94744 6.25271L8.31586 7.47376H6.63165C6.16849 7.47376 5.78954 7.85271 5.78954 8.31587V14.2106C5.78954 14.6738 6.16849 15.0527 6.63165 15.0527H15.8948C16.358 15.0527 16.7369 14.6738 16.7369 14.2106V8.31587C16.7369 7.85271 16.358 7.47376 15.8948 7.47376H14.2106Z" stroke="white" stroke-width="1.58399" stroke-miterlimit="10" stroke-linejoin="round"/>
<path d="M11.2631 13.3681C12.6583 13.3681 13.7894 12.237 13.7894 10.8417C13.7894 9.4465 12.6583 8.31543 11.2631 8.31543C9.86785 8.31543 8.73678 9.4465 8.73678 10.8417C8.73678 12.237 9.86785 13.3681 11.2631 13.3681Z" stroke="white" stroke-width="1.58399" stroke-miterlimit="10" stroke-linejoin="round"/>
<path d="M6.63174 8.73633H7.89489" stroke="white" stroke-miterlimit="10" stroke-linejoin="round"/>
</svg>
