<svg width="49" height="49" viewBox="0 0 49 49" fill="none" xmlns="http://www.w3.org/2000/svg">
<g clip-path="url(#clip0_573_5116)">
<path d="M24.1 0C10.3 0 0 10.3 0 24.1C0 37.9 10.3 48.2 24.1 48.2C37.9 48.2 48.2 37.9 48.2 24.1C48.2 10.3 37.9 0 24.1 0ZM24.1 44.3C12.5 44.3 4.1 35.8 4.1 24.1C4.1 12.4 12.5 3.9 24.1 3.9C35.7 3.9 44.1 12.5 44.1 24.1C44.1 35.8 35.7 44.3 24.1 44.3Z" fill="white"/>
<path d="M7.50002 29.7997C7.70002 28.8997 7.90002 27.9997 8.40002 27.1997C9.60002 25.2997 11.3 24.0997 13.6 23.9997C16.3 23.7997 18.3 24.8997 19.8 27.0997C19.9 27.2997 19.9 27.3997 19.7 27.4997C19.3 27.8997 19 28.1997 18.6 28.5997C18.4 28.7997 18.3 28.7997 18.2 28.4997C17.5 27.0997 16.3 26.1997 14.8 25.9997C12.2 25.5997 9.80002 27.4997 9.50002 30.0997C9.30002 32.4997 10.9 34.6997 13.2 35.0997C14.4 35.2997 15.5 35.0997 16.6 34.3997C16.9 34.1997 17 34.1997 17.2 34.4997C17.5 34.8997 17.9 35.0997 18.3 35.2997C18.5 35.3997 18.5 35.4997 18.4 35.5997C15.8 37.8997 11.5 37.6997 9.10002 34.9997C8.20002 33.8997 7.60002 32.6997 7.40002 31.2997C7.50002 30.9997 7.50002 30.3997 7.50002 29.7997Z" fill="white"/>
<path d="M26.4001 12.5C27.5001 12.5 28.4001 13 29.0001 13.9C29.1001 14 29.2001 14.2 29.3001 14.3C30.0001 15.2 30.1001 16.1 29.9001 17.2C29.8001 17.9 29.7001 18.6 29.7001 19.3C29.7001 19.6 29.8001 19.6 30.0001 19.7C31.4001 19.9 32.8001 20.1 34.1001 20.4C34.9001 20.5 35.5001 21.2 35.6001 21.9C35.7001 22.7 35.2001 23.4 34.4001 23.7C33.9001 23.9 33.5001 23.7 33.0001 23.7C31.2001 23.4 29.4001 23.1 27.6001 22.8C26.6001 22.6 26.0001 21.8 26.1001 20.8C26.1001 20.7 26.2001 20.6 26.1001 20.6C26.0001 20.6 26.0001 20.6 25.9001 20.7C25.3001 21.1 24.6001 21.5 24.0001 21.9C23.7001 22.1 23.8001 22.1 24.0001 22.3C25.0001 22.9 26.0001 23.5 27.0001 24C27.9001 24.5 28.3001 25.3 28.1001 26.3C28.0001 26.7 27.8001 27.1 27.5001 27.4C25.4001 29.6 23.3001 31.7 21.3001 33.9C20.3001 35 18.7001 34.8 18.0001 33.5C17.6001 32.8 17.7001 32 18.2001 31.3C18.4001 31 18.7001 30.7 18.9001 30.5C20.1001 29.3 21.2001 28.1 22.4001 26.9C22.7001 26.6 22.7001 26.6 22.3001 26.4C20.6001 25.3 18.8001 24.2 17.2001 23C16.1001 22.2 15.7001 20.9 16.1001 19.6C16.4001 18.7 17.0001 17.9 17.8001 17.4C20.1001 15.9 22.5001 14.5 24.8001 13C25.3001 12.7 25.8001 12.5 26.4001 12.5Z" fill="white"/>
<path d="M34 37.4C30.3 37.4 27.3 34.4 27.3 30.7C27.3 27 30.2 24 34 24C37.9 24 40.7001 27.2 40.7001 30.7C40.7001 34.4 37.7 37.4 34 37.4ZM29.4 30.7C29.4 33.2 31.5 35.4 34 35.3C36.6 35.3 38.6 33.3 38.6 30.7C38.6 28.1 36.5 26.1 34 26.1C31.5 26.1 29.4 28.1 29.4 30.7Z" fill="white"/>
<path d="M32.8001 8.7998C34.7001 8.7998 36.2001 10.2998 36.2001 12.0998C36.2001 13.9998 34.7001 15.4998 32.9001 15.4998C31.0001 15.4998 29.5001 13.9998 29.5001 12.1998C29.4001 10.2998 30.9001 8.7998 32.8001 8.7998Z" fill="white"/>
</g>
<defs>
<clipPath id="clip0_573_5116">
<rect width="48.2" height="48.2" fill="white"/>
</clipPath>
</defs>
</svg>
