<svg width="28" height="31" viewBox="0 0 28 31" fill="none" xmlns="http://www.w3.org/2000/svg">
<path fill-rule="evenodd" clip-rule="evenodd" d="M0.857777 8.9534C0.857941 8.2289 1.36046 7.33952 1.98226 6.96546L12.8526 0.426254C13.4735 0.0526839 14.4792 0.0526838 15.1014 0.427567L25.9754 6.97924C26.5966 7.3533 27.0997 8.24301 27.0996 8.97063L27.095 22.0305C27.0948 22.7561 26.5915 23.649 25.9715 24.0245L15.0777 30.6206C14.4574 30.9963 13.453 30.9962 12.8317 30.619L1.97619 24.0261C1.35604 23.6496 0.853676 22.7575 0.854004 22.0326L0.857777 8.9534ZM3.14415 7.89126L13.945 13.922L24.2426 7.97017L13.9277 1.91332L3.14415 7.89126ZM2.44754 9.84311C2.44754 10.1102 2.27282 21.6326 2.27282 21.6326C2.26724 21.9946 2.5135 22.4393 2.82522 22.6275L12.9334 28.7277L13.0265 16.0271C13.0265 16.0271 2.44754 9.57585 2.44754 9.84311ZM14.9338 28.7001L24.9272 22.3575C25.3098 22.1147 25.6201 21.5511 25.6201 21.0976V9.77831L14.9338 15.9328V28.7001Z" fill="white"/>
<path fill-rule="evenodd" clip-rule="evenodd" d="M5.7575 16.2033C4.97295 16.6565 3.93279 16.3239 3.43437 15.4608C2.93611 14.5977 3.16826 13.5306 3.95281 13.0776C4.73752 12.6245 5.77767 12.957 6.27593 13.8202C6.77435 14.6833 6.54221 15.7504 5.7575 16.2033ZM11.0075 19.6487C10.2229 20.1018 9.18279 19.7692 8.68437 18.9061C8.18611 18.043 8.41826 16.9759 9.20281 16.5229C9.98752 16.0698 11.0277 16.4023 11.5259 17.2655C12.0244 18.1286 11.7922 19.1957 11.0075 19.6487ZM5.7575 22.2737C4.97295 22.7268 3.93279 22.3942 3.43437 21.5311C2.93611 20.668 3.16826 19.6009 3.95281 19.1479C4.73752 18.6948 5.77767 19.0273 6.27593 19.8905C6.77435 20.7536 6.54221 21.8207 5.7575 22.2737ZM11.0075 25.719C10.2229 26.1721 9.18279 25.8395 8.68437 24.9764C8.18611 24.1133 8.41826 23.0462 9.20281 22.5932C9.98752 22.1401 11.0277 22.4727 11.5259 23.3358C12.0244 24.1989 11.7922 25.266 11.0075 25.719ZM23.8434 12.9136C23.0587 12.4604 22.0187 12.793 21.5203 13.6561C21.022 14.5192 21.254 15.5863 22.0387 16.0393C22.8234 16.4924 23.8636 16.1599 24.3619 15.2967C24.8603 14.4336 24.6281 13.3665 23.8434 12.9136ZM21.1794 17.6714C20.3948 17.2182 19.3547 17.5508 18.8562 18.4139C18.358 19.277 18.5901 20.3441 19.3747 20.7971C20.1594 21.2502 21.1995 20.9177 21.6978 20.0545C22.1962 19.1914 21.9641 18.1243 21.1794 17.6714ZM18.3903 22.2651C17.6058 21.812 16.5656 22.1445 16.0672 23.0077C15.5689 23.8708 15.8011 24.9379 16.5856 25.3908C17.3703 25.844 18.4105 25.5114 18.9087 24.6483C19.4072 23.7852 19.175 22.7181 18.3903 22.2651ZM14.082 5.82031C13.0401 5.82031 12.1953 6.62832 12.1953 7.625C12.1953 8.62168 13.0401 9.42969 14.082 9.42969C15.124 9.42969 15.9687 8.62168 15.9687 7.625C15.9687 6.62832 15.124 5.82031 14.082 5.82031Z" fill="white"/>
</svg>
