<svg width="250" height="175" viewBox="0 0 250 175" fill="none" xmlns="http://www.w3.org/2000/svg">
<path fill-rule="evenodd" clip-rule="evenodd" d="M233.594 24.5583L134.953 100.8C132.15 102.967 128.624 104.154 124.984 104.154C121.344 104.154 117.819 102.967 115.016 100.8L16.4219 24.5583C15.8926 26.0445 15.6235 27.6006 15.625 29.1667V145.833C15.625 149.701 17.2712 153.41 20.2015 156.145C23.1317 158.88 27.106 160.417 31.25 160.417H218.75C222.894 160.417 226.868 158.88 229.799 156.145C232.729 153.41 234.375 149.701 234.375 145.833V29.1667C234.382 27.6014 234.118 26.0453 233.594 24.5583ZM31.25 0H218.75C227.038 0 234.987 3.07291 240.847 8.54272C246.708 14.0125 250 21.4312 250 29.1667V145.833C250 153.569 246.708 160.987 240.847 166.457C234.987 171.927 227.038 175 218.75 175H31.25C22.962 175 15.0134 171.927 9.15291 166.457C3.2924 160.987 0 153.569 0 145.833V29.1667C0 21.4312 3.2924 14.0125 9.15291 8.54272C15.0134 3.07291 22.962 0 31.25 0ZM27.9687 14.5833L115.094 81.7104C117.884 83.8615 121.388 85.0419 125.007 85.0498C128.626 85.0578 132.136 83.893 134.937 81.7542L222.937 14.5833H27.9687Z" fill="#546A87"/>
</svg>
