<svg width="23" height="17" viewBox="0 0 23 17" fill="none" xmlns="http://www.w3.org/2000/svg">
<path fill-rule="evenodd" clip-rule="evenodd" d="M21.4906 2.38567L12.4157 9.792C12.1578 10.0026 11.8334 10.1178 11.4986 10.1178C11.1637 10.1178 10.8393 10.0026 10.5814 9.792L1.51081 2.38567C1.46212 2.53004 1.43736 2.6812 1.4375 2.83333V14.1667C1.4375 14.5424 1.58895 14.9027 1.85853 15.1684C2.12812 15.4341 2.49375 15.5833 2.875 15.5833H20.125C20.5062 15.5833 20.8719 15.4341 21.1415 15.1684C21.411 14.9027 21.5625 14.5424 21.5625 14.1667V2.83333C21.5631 2.68127 21.5388 2.53011 21.4906 2.38567ZM2.875 0H20.125C20.8875 0 21.6188 0.298511 22.1579 0.829864C22.6971 1.36122 23 2.08189 23 2.83333V14.1667C23 14.9181 22.6971 15.6388 22.1579 16.1701C21.6188 16.7015 20.8875 17 20.125 17H2.875C2.1125 17 1.38124 16.7015 0.842068 16.1701C0.302901 15.6388 0 14.9181 0 14.1667V2.83333C0 2.08189 0.302901 1.36122 0.842068 0.829864C1.38124 0.298511 2.1125 0 2.875 0ZM2.57312 1.41667L10.5886 7.93758C10.8453 8.14655 11.1677 8.26121 11.5007 8.26198C11.8336 8.26276 12.1565 8.1496 12.4142 7.94183L20.5103 1.41667H2.57312Z" fill="#6A6A6A"/>
</svg>
