<svg width="211" height="217" viewBox="0 0 211 217" fill="none" xmlns="http://www.w3.org/2000/svg">
<g clip-path="url(#clip0_1825_10979)">
<path d="M103.573 131.273L107.055 115.551L97.9018 110.887C97.7923 106.354 97.004 101.931 95.5807 97.7489L102.588 90.2382L93.9385 76.6402L84.1724 79.8152C80.9754 76.7715 77.2967 74.1658 73.2457 72.1513L72.8735 61.8815L57.1514 58.3999L52.4873 67.5529C47.9546 67.6624 43.5314 68.4507 39.349 69.874L31.8383 62.8669L18.2622 71.5162L21.4372 81.2823C18.3935 84.4793 15.7878 88.158 13.7733 92.209L3.50353 92.5812L0 108.325L9.15298 112.989C9.26246 117.522 10.0508 121.945 11.4741 126.128L4.467 133.638L13.1163 147.214L22.8824 144.039C26.0794 147.083 29.7581 149.689 33.8091 151.703L34.1813 161.973L49.9034 165.455L54.5675 156.302C59.1002 156.192 63.5234 155.404 67.7058 153.981L75.2165 160.988L88.7926 152.338L85.6176 142.572C88.6613 139.375 91.267 135.697 93.2815 131.646L103.573 131.273ZM50.3633 126.193C42.5022 124.441 37.5316 116.668 39.2615 108.785C41.0132 100.924 48.7867 95.9534 56.6696 97.6833C64.5307 99.435 69.5013 107.208 67.7714 115.091C66.0416 122.974 58.2462 127.945 50.3633 126.193Z" fill="#FFDC93"/>
<path d="M159.739 177.016C174.651 169.308 180.498 151.002 172.79 136.09C165.082 121.178 146.776 115.332 131.864 123.04C116.952 130.747 111.106 149.053 118.814 163.965C126.521 178.855 144.827 184.702 159.739 177.016ZM139.156 147.893L134.689 132.828L138.236 130.988L147.937 143.36L163.002 138.893L164.841 142.44L152.469 152.141L156.936 167.206L153.389 169.045L143.689 156.674L128.623 161.141L126.784 157.593L139.156 147.893Z" fill="#FFDC93"/>
<path d="M166.177 205.876L179.556 198.979L175.768 187.198C180.607 183.322 184.527 178.593 187.439 173.359L199.701 175.111L204.278 160.768L193.264 155.097C193.899 149.141 193.439 143.01 191.753 137.054L201.672 129.631L194.753 116.274L182.972 120.062C179.096 115.222 174.366 111.303 169.133 108.391L170.885 96.1282L156.542 91.5518L150.871 102.566C144.915 101.931 138.784 102.391 132.828 104.077L125.426 94.1575L112.047 101.055L115.836 112.836C110.996 116.711 107.077 121.441 104.164 126.675L91.902 124.923L87.3255 139.265L98.3398 144.937C97.7047 150.893 98.1646 157.024 99.8507 162.98L89.9313 170.403L96.8289 183.782L108.609 179.994C112.485 184.833 117.215 188.753 122.448 191.665L120.697 203.928L135.039 208.504L140.711 197.49C146.667 198.125 152.798 197.665 158.754 195.979L166.177 205.876ZM130.134 119.689C146.886 111.04 167.491 117.609 176.14 134.361C184.789 151.112 178.22 171.717 161.469 180.366C144.718 189.016 124.113 182.447 115.463 165.695C106.814 148.944 113.383 128.339 130.134 119.689Z" fill="#FFDC93"/>
<path d="M192.848 80.8443C200.575 80.8443 206.84 74.5798 206.84 66.8521C206.84 59.1244 200.575 52.8599 192.848 52.8599C185.12 52.8599 178.855 59.1244 178.855 66.8521C178.855 74.5798 185.12 80.8443 192.848 80.8443Z" fill="#FFDC93"/>
<path d="M199.373 87.3258V87.2601C199.307 86.8002 199.198 86.3404 199.044 85.9025L196.723 76.2021L193.877 80.0121L136.156 41.6485C130.944 38.1887 123.04 39.612 118.485 44.8454L18.9847 159.214L12.547 158.053L15.1965 169.089H15.2184C15.5469 171.761 16.9483 174.213 19.4226 175.856L78.501 215.117C83.7125 218.577 91.6173 217.132 96.1719 211.898L196.417 96.6539C198.891 93.8073 199.855 90.3914 199.373 87.3258Z" fill="#3081D4"/>
<path d="M133.441 30.13L192.519 69.3915C197.731 72.8512 198.256 79.9021 193.701 85.1355L93.4348 200.38C88.8802 205.613 80.9753 207.058 75.7638 203.599L16.6855 164.337C11.474 160.877 10.9485 153.827 15.5031 148.593L115.77 33.3489C120.302 28.1155 128.229 26.6703 133.441 30.13Z" fill="#003781"/>
<path d="M80.0556 201.124C79.3111 200.927 78.6104 200.621 78.0192 200.205L18.9409 160.943C17.5833 160.045 16.7512 158.732 16.5322 157.155C16.2695 155.206 17.014 153.06 18.5687 151.265L118.835 36.0204C121.397 33.0643 125.645 31.6629 129.127 32.6263C129.871 32.8234 130.572 33.13 131.185 33.546L190.264 72.8075C191.621 73.7052 192.453 75.0191 192.672 76.5957C192.935 78.5445 192.191 80.6904 190.636 82.486L90.3692 197.708C87.7853 200.664 83.5592 202.066 80.0556 201.124Z" fill="#F8AE17"/>
<path d="M42.6116 73.4871L42.8306 100.968L58.8593 96.3914L64.8591 117.894L45.8086 122.186C33.1302 125.055 21.6561 113.975 24.0867 101.209L29.9551 70.312L42.6116 73.4871Z" fill="#EBAE90"/>
<path d="M58.8374 96.3911L55.5309 97.3327C52.6186 104.493 52.9252 112.88 56.2535 119.843L64.8372 117.894L58.8374 96.3911Z" fill="#422C4F"/>
<path d="M46.4874 68.9102C46.2903 69.0415 46.1152 69.151 45.94 69.2605C44.1882 70.3992 43.181 72.3699 43.2466 74.4501L43.3342 76.9464L44.8013 89.4058L43.8817 89.3401C37.3344 88.8365 30.9843 86.7125 25.4443 83.1651L25.3348 83.0995L29.977 67.5963C30.1522 66.7205 29.8237 65.8008 29.123 65.2314L46.4874 68.9102Z" fill="#82CDF7"/>
<path d="M34.9914 67.0708C30.0865 67.9248 24.9845 63.3702 28.5975 55.8157L56.998 45.1519C52.2901 57.5894 40.181 66.8081 34.9914 67.0708Z" fill="#82CDF7"/>
<path d="M36.2616 56.6259L27.4152 59.9543C27.5247 58.7061 27.875 57.3266 28.5976 55.8157L56.9981 45.1519C52.2684 57.5894 40.1593 66.8081 34.9697 67.0708C34.3128 63.5892 34.685 59.8229 36.2616 56.6259Z" fill="#437BAA"/>
<path d="M57.6768 51.0202L59.1001 50.5165C60.9833 49.8596 62.9978 49.772 64.9248 50.2538L73.4865 52.4216L74.2748 41.3198C74.45 38.9987 76.5083 37.2688 78.8294 37.5316L83.2307 38.0352C82.4424 35.7579 80.9753 33.5025 78.917 32.2763C76.8587 31.05 74.3186 30.6559 71.9537 31.1376C69.2166 31.7069 66.8079 33.4368 64.9467 35.517C63.9394 36.6338 63.1073 37.7943 62.3628 38.9987C61.049 41.0789 59.0344 42.6336 56.6696 43.3343L55.1587 43.7941L57.6768 51.0202Z" fill="#AEADD8"/>
<path d="M82.8366 44.7792L74.0558 44.3193L73.5303 51.633C81.0191 50.9323 82.8366 44.7792 82.8366 44.7792Z" fill="#AEADD8"/>
<path d="M16.5979 56.2539C14.036 57.086 12.6783 59.845 13.5542 62.385C14.4301 64.9251 17.2329 66.217 19.7511 65.2755L57.6768 51.0205L55.1587 43.7944L16.5979 56.2539ZM17.7804 58.1808C19.1161 57.721 20.5832 58.4217 21.043 59.7574C21.5029 61.0931 20.8022 62.5602 19.4664 63.0201C18.1307 63.4799 16.6636 62.7792 16.2038 61.4435C15.7439 60.1078 16.4446 58.6407 17.7804 58.1808Z" fill="#AEADD8"/>
<path d="M22.335 58.7718L22.6853 59.7791C22.9919 60.6769 23.9773 61.1367 24.875 60.8083L59.3191 48.1955C60.195 47.8671 60.6549 46.9255 60.3483 46.0277C60.0417 45.1518 59.0783 44.692 58.2024 44.9767L23.4079 56.5602C22.5101 56.8887 22.0284 57.874 22.335 58.7718Z" fill="#8682AA"/>
<path d="M64.9748 45.7197L64.8731 46.3687L69.3294 47.0669L69.431 46.418L64.9748 45.7197Z" fill="#65648E"/>
<path d="M65.2075 44.2309L65.1057 44.8799L69.5619 45.5791L69.6637 44.9301L65.2075 44.2309Z" fill="#65648E"/>
<path d="M65.4327 42.7168L65.331 43.3657L69.7872 44.0644L69.889 43.4155L65.4327 42.7168Z" fill="#65648E"/>
<path d="M75.2164 51.3702C74.6909 51.4797 74.1434 51.5892 73.5303 51.633L74.0558 44.3193L75.6981 44.4069L75.2164 51.3702Z" fill="#8682AA"/>
<path d="M66.8079 37.1811C68.0341 35.8235 70.0049 34.0936 72.4573 33.59C74.231 33.2178 76.1142 33.5243 77.6251 34.4221C77.8878 34.5754 75.3697 35.517 74.1434 36.5242C73.9026 36.7213 73.6836 36.9403 73.4646 37.1592C72.0851 38.692 70.3333 39.8745 68.3407 40.4C68.2093 40.4438 68.0779 40.4657 67.9465 40.4876C66.4138 40.8379 65.2751 39.0862 66.2386 37.8381C66.4794 37.5753 66.6546 37.3344 66.8079 37.1811Z" fill="#D6D3F1"/>
<path d="M30.0865 44.7133C28.9698 45.3483 28.3567 46.6402 28.3129 47.9321C28.2691 49.2022 28.707 50.4503 29.342 51.5671C29.8894 52.5305 30.5902 53.4502 31.6193 53.8882C32.6266 54.3261 34.0061 54.0852 34.5535 53.1436C34.9696 52.421 34.8601 51.5233 34.7287 50.6912C34.5754 49.6839 34.4002 48.6548 34.247 47.6475C34.1375 46.9468 34.1375 46.0709 33.7652 45.4578C33.1083 44.2753 31.1595 44.0783 30.0865 44.7133Z" fill="#82CDF7"/>
<path d="M33.3054 52.1581C33.2835 51.326 32.8018 50.6034 32.4952 49.837C32.1011 48.8735 31.9697 47.8225 32.0792 46.7714C32.1229 46.3773 32.2105 45.9831 32.4076 45.6547C32.6047 45.3043 32.9331 45.0196 33.3273 44.9102C33.5025 45.0634 33.6557 45.2386 33.7871 45.4357C34.1375 46.0707 34.1594 46.9466 34.2689 47.6254C34.4221 48.6327 34.5973 49.6618 34.7506 50.6691C34.882 51.5012 34.9915 52.399 34.5754 53.1216C34.1375 53.8442 33.2397 54.1507 32.3857 54.0631C32.955 53.6471 33.3492 52.9026 33.3054 52.1581Z" fill="#437BAA"/>
<path d="M39.6117 42.9403C38.7577 42.152 37.5534 41.8016 36.4147 41.9768C35.2761 42.1739 34.2469 42.9184 33.6995 43.9257C33.174 44.911 33.1083 46.0716 33.1959 47.1883C33.371 49.2248 34.0499 51.1955 35.1666 52.9035C35.6264 53.6042 36.1958 54.283 36.9622 54.6114C37.7943 54.9618 38.8015 54.8304 39.5241 54.3049C40.2467 53.7575 40.6409 52.8378 40.5314 51.94C40.181 49.0496 39.1738 45.8307 39.6117 42.9403Z" fill="#82CDF7"/>
<path d="M38.1884 51.5678C37.3563 49.8599 37.006 47.911 37.1811 46.0279C37.2468 45.3272 37.4001 44.6046 37.7505 43.9914C38.1008 43.3783 38.7139 42.9404 39.4146 42.7871C39.4803 42.8528 39.5679 42.8966 39.6336 42.9623C39.1957 45.8527 40.2029 49.0716 40.5533 51.9839C40.6628 52.8817 40.2467 53.8013 39.546 54.3488C39.2614 54.5458 38.9548 54.6991 38.6264 54.7867C38.8015 54.5458 38.9329 54.2393 38.9767 53.9327C39.0205 53.0787 38.5607 52.3123 38.1884 51.5678Z" fill="#437BAA"/>
<path d="M45.7648 48.1519C45.7648 49.5314 45.5896 50.9766 44.7794 52.1153C43.9692 53.232 42.3927 53.9109 41.1664 53.2977C40.0935 52.7722 39.6117 51.5241 39.2833 50.3854C38.911 49.0716 38.6045 47.714 38.6045 46.3345C38.6045 44.955 38.8891 43.5754 39.6117 42.4149C40.3343 41.2543 41.5168 40.3347 42.8744 40.1157C44.232 39.8967 45.721 40.4223 46.5093 41.539C45.9619 43.5754 45.7648 46.0498 45.7648 48.1519Z" fill="#82CDF7"/>
<path d="M43.159 52.6183C43.5751 51.9395 43.597 51.0855 43.4656 50.2972C43.3342 49.5089 43.0496 48.7644 42.9401 47.9761C42.7211 46.6623 42.9401 45.2609 43.5313 44.0565C44.1225 42.8522 45.1955 41.9763 46.3779 41.3413C46.4217 41.407 46.4655 41.4727 46.5093 41.5384C45.9838 43.5748 45.7648 46.0492 45.7648 48.1513C45.7648 49.5308 45.5896 50.976 44.7794 52.1147C44.1663 52.9906 43.0715 53.5818 42.0423 53.5161C42.4802 53.3409 42.8963 53.0343 43.159 52.6183Z" fill="#437BAA"/>
<path d="M50.5384 45.5454C49.9253 46.5965 49.1808 47.6914 48.1735 48.3483C47.1662 49.0052 45.6335 49.0709 44.8014 48.1731C44.3415 47.6695 44.1882 46.9469 44.232 46.2681C44.2758 45.5892 44.5167 44.9323 44.7795 44.2973C45.4802 42.5018 46.4655 40.6405 48.1735 39.7865C49.5749 39.0858 51.3048 39.1734 52.7281 39.8741C54.1295 40.5748 55.3995 42.0419 56.0784 43.4652L50.5384 45.5454Z" fill="#82CDF7"/>
<path d="M48.4363 47.1662C49.5531 45.5458 50.4727 43.8159 51.1953 41.9766C51.48 42.5021 51.6114 43.1152 51.5238 43.7064C52.553 43.794 53.6916 44.3852 53.6916 44.3852L50.5603 45.5677C49.9472 46.6187 49.2027 47.7136 48.1954 48.3705C47.7575 48.6552 47.232 48.8303 46.7283 48.8522C46.9911 48.7428 47.2101 48.5895 47.429 48.3924C47.8013 48.0421 48.1297 47.6041 48.4363 47.1662Z" fill="#437BAA"/>
<path d="M34.9915 67.0709C37.0936 70.0708 41.4292 70.9029 44.8889 69.6329C48.3268 68.3847 50.9325 65.4505 52.7062 62.2535C54.4798 59.0566 55.5747 55.5311 56.9761 52.1371C58.0929 49.4219 59.4505 46.7504 61.3774 44.5607C62.2314 43.5972 61.9249 42.0207 60.7205 41.5608C54.9616 39.3054 51.2391 50.3415 49.6406 53.429C47.7137 52.5312 45.3488 53.2101 43.5094 54.2611C38.9548 56.8669 36.1082 61.947 34.9915 67.0709Z" fill="#82CDF7"/>
<path d="M54.4361 45.4144C52.8157 47.9326 51.8303 51.3923 49.6406 53.4288C51.0639 50.6697 54.2171 41.5386 58.9906 41.2759C57.1294 42.2394 55.5528 43.6627 54.4361 45.4144Z" fill="#437BAA"/>
<path d="M115.354 93.2378L98.3616 86.5154C92.9311 84.3695 86.8875 84.2819 81.3913 86.2964L57.3046 95.0991C55.7499 104.427 57.3264 113.996 61.7497 122.339L62.0781 122.952L79.6834 116.449C71.3406 155.009 90.3691 197.687 90.3691 197.687L169.133 107.164L148.9 88.727C144.061 84.3038 137.032 83.2308 131.098 85.968L115.354 93.2378Z" fill="#003781"/>
<path d="M127.178 98.6466C127.485 96.851 127.638 95.0117 127.31 93.2161C126.981 91.4205 126.193 89.6907 124.835 88.4644C123.653 87.4134 122.164 86.8002 120.631 86.3623C121.113 86.6908 121.573 87.0192 122.01 87.4134C123.324 88.5739 124.375 90.1286 124.572 91.8804C124.813 93.873 123.937 95.8437 122.843 97.5298C120.916 100.552 118.244 103.07 115.135 104.865L120.105 113.011C123.762 109.048 126.258 103.968 127.178 98.6466Z" fill="#82CDF7"/>
<path d="M104.296 90.7636C104.646 89.0119 105.412 87.3696 106.485 85.9463C106.004 86.1653 105.588 86.4499 105.237 86.7784C103.201 88.7272 101.799 91.3111 101.318 94.092C100.792 97.07 101.274 100.157 102.259 103.026C103.245 105.895 104.712 108.566 106.157 111.216L111.39 104.603C109.42 103.223 107.515 101.712 106.157 99.7414C104.361 97.1576 103.683 93.8511 104.296 90.7636Z" fill="#82CDF7"/>
<path d="M124.594 91.88C124.397 90.1282 123.346 88.5735 122.032 87.413C121.594 87.0189 121.135 86.6904 120.653 86.3619C120.281 86.2525 119.908 86.143 119.558 86.0554C117.324 85.4642 115.047 84.9386 112.726 84.8948C110.887 84.851 108.325 85.0481 106.507 85.924C105.434 87.3473 104.668 88.9896 104.318 90.7414C103.704 93.8288 104.405 97.1353 106.179 99.7192C107.536 101.69 109.463 103.201 111.412 104.58L113.449 102.018L115.179 104.843C118.288 103.048 120.959 100.529 122.886 97.5075C123.937 95.8434 124.813 93.8726 124.594 91.88Z" fill="#437BAA"/>
<path d="M110.909 174.082C109.201 173.053 108.719 170.381 108.697 168.389C108.675 166.396 108.938 164.316 108.106 162.498C107.208 160.528 105.106 159.126 104.777 157.002C104.274 153.871 107.821 151.418 108.084 148.243C108.259 146.163 106.989 144.258 106.398 142.265C105.697 139.901 105.872 137.032 106.967 134.733C107.668 133.266 107.865 131.623 107.449 130.047C106.836 127.748 107.011 125.186 107.602 122.843C108.412 119.624 109.945 116.624 111.084 113.515C112.222 110.383 113.208 106.551 112.398 103.332L113.405 102.041L114.149 103.245C114.85 104.384 114.128 107.624 113.952 108.894C113.668 110.931 113.142 112.945 112.42 114.894C111.106 118.376 108.763 122.449 108.807 126.324C108.828 128.886 109.639 130.244 109.266 132.784C108.982 134.733 108.237 136.594 108.018 138.565C107.821 140.251 107.953 142.025 108.807 143.492C109.639 144.893 110.427 146.513 110.164 148.178C109.792 150.564 107.755 152.229 107.055 154.506C106.661 155.754 106.639 157.177 107.274 158.338C107.953 159.586 109.266 160.287 110.011 161.491C110.974 163.068 110.733 165.06 110.712 166.9C110.69 168.739 111.171 170.907 112.836 171.695" fill="#489DCC"/>
<path d="M117.259 122.383C117.193 124.047 116.164 125.361 114.938 125.317C113.711 125.273 112.77 123.894 112.814 122.23C112.879 120.566 113.909 119.252 115.135 119.295C116.361 119.339 117.303 120.719 117.259 122.383Z" fill="#F9EAA8"/>
<path d="M116.646 139.879C116.58 141.543 115.551 142.857 114.325 142.813C113.098 142.769 112.157 141.389 112.201 139.725C112.266 138.061 113.295 136.747 114.522 136.791C115.77 136.835 116.711 138.214 116.646 139.879Z" fill="#F9EAA8"/>
<path d="M116.264 156.364C116.321 154.696 115.368 153.309 114.136 153.267C112.903 153.225 111.857 154.543 111.8 156.21C111.743 157.878 112.696 159.265 113.929 159.307C115.161 159.349 116.207 158.031 116.264 156.364Z" fill="#F9EAA8"/>
<path d="M64.5306 92.4714C60.7862 107.318 66.1948 115.31 69.9611 120.062L72.4355 119.142C63.6328 111.347 64.9905 95.6465 67.0269 91.5518L64.5306 92.4714Z" fill="#82CDF7"/>
<path opacity="0.3" d="M79.6834 116.471C82.0702 104.668 88.8583 92.1431 88.8583 92.1431C81.7198 94.0481 75.4135 100.311 72.4792 107.099C71.7566 108.763 71.2092 110.537 70.1144 112.004C68.9757 113.515 67.3553 114.588 66.0634 115.989C64.7934 117.39 63.6109 120.39 64.3335 122.142L79.6834 116.471Z" fill="#422C4F"/>
<path opacity="0.3" d="M153.039 119.997C144.564 114.194 139.791 103.42 141.17 93.2383C138.608 97.0046 137.995 102.019 139.134 106.42C139.769 108.851 140.973 111.172 141.017 113.69C141.061 116.055 140.097 118.31 139.375 120.566C138.652 122.821 138.17 125.361 139.156 127.507C143.207 124.595 148.418 121.858 153.039 119.997Z" fill="#422C4F"/>
<path opacity="0.3" d="M82.7928 175.177C86.3182 188.687 90.3473 197.709 90.3473 197.709L147.499 132.039L135.981 127.923C128.47 147.981 105.018 169.549 82.7928 175.177Z" fill="#422C4F"/>
<path d="M102.982 118.441C96.2814 116.733 89.6903 114.566 83.2964 111.938C82.7709 112.836 82.6395 113.887 82.6833 114.916C88.6612 118.157 95.3617 120.719 102.062 121.835C102.237 120.938 102.807 119.361 102.982 118.441Z" fill="#82CDF7"/>
<path d="M101.405 125.251C94.4639 124.134 87.7415 121.748 81.6541 118.244C80.0776 123.28 79.6396 128.689 80.1213 133.944C80.2089 134.952 80.7345 135.849 81.5666 136.441C83.2088 137.601 84.8511 138.805 86.4934 139.966C87.4131 140.623 88.5298 140.973 89.6685 140.951C91.9239 140.951 94.1793 141.017 96.4347 141.039C98.2959 141.061 99.8725 139.572 99.8725 137.689C99.8506 133.55 100.529 129.105 101.405 125.251Z" fill="#82CDF7"/>
<path d="M101.909 80.9751L105.15 91.4419C108.369 97.5949 113.558 100.485 113.558 100.485C123.456 93.8505 122.689 90.4784 122.689 90.4784L119.996 75.3037L101.909 80.9751Z" fill="#EBAE90"/>
<path d="M109.288 88.0701C112.682 87.4351 115.704 85.1578 117.434 82.1579C118.595 80.1653 119.164 77.8661 119.208 75.5669L101.909 80.9974L104.011 87.7636C105.719 88.2672 107.536 88.3986 109.288 88.0701Z" fill="#CD8174"/>
<path d="M96.8945 28.3786C98.1645 26.4517 100.748 25.7729 103.026 26.1451C105.303 26.5174 107.317 27.7436 109.266 28.9917C110.69 29.9114 112.069 30.8311 113.471 31.7946C113.055 29.3202 112.463 26.4955 110.712 24.9846C108.785 23.3204 106.989 21.919 104.602 21.0431C102.237 20.1453 99.5878 19.8826 97.1353 20.5833C94.7048 21.284 92.5151 23.0576 91.6173 25.4225C90.9604 27.1524 91.0042 29.0574 91.048 30.9187C91.0918 32.6048 91.1355 34.2689 91.1793 35.955C91.2012 36.6995 91.2231 37.4659 91.5078 38.1447C92.1647 39.7432 93.9603 40.5315 95.6463 40.9476C95.7558 40.9694 95.8434 40.9913 95.9529 41.0132C95.931 38.5389 95.9091 36.0426 95.8872 33.5682C95.8872 31.7727 95.9091 29.8676 96.8945 28.3786Z" fill="#003781"/>
<path d="M113.471 31.773C112.091 30.8314 110.69 29.8898 109.266 28.9701C107.339 27.722 105.303 26.4958 103.026 26.1235C100.748 25.7513 98.1645 26.452 96.8945 28.357C95.9091 29.846 95.8872 31.7511 95.9091 33.5247C95.931 35.9991 95.9529 38.4954 95.9748 40.9697C100.77 42.0865 105.938 41.561 110.405 39.5026C111.587 38.9552 112.792 38.2326 113.405 37.0721C114.018 35.8896 113.93 34.4663 113.711 33.1525C113.624 32.7364 113.536 32.2766 113.471 31.773Z" fill="#80B4E0"/>
<path d="M101.318 83.1655C91.267 80.4502 85.3329 70.0929 88.0481 60.0422L90.6757 50.3637C93.391 40.3129 103.748 34.3788 113.799 37.094C123.85 39.8093 129.784 50.1666 127.069 60.2173L124.441 69.8958C121.726 79.9466 111.368 85.8807 101.318 83.1655Z" fill="#EBAE90"/>
<path d="M110.712 49.0057C114.981 47.6043 118.813 44.9328 121.704 41.4731C119.536 39.4585 116.865 37.9257 113.821 37.0937C104.821 34.6631 95.5807 39.1739 91.7925 47.3415C97.5295 50.3852 104.515 51.0421 110.712 49.0057Z" fill="#DF917C"/>
<path d="M111.763 51.5019C109.595 50.6479 107.252 50.9326 105.412 52.0712L116.076 56.2317C115.463 54.1296 113.93 52.334 111.763 51.5019Z" fill="#454369"/>
<path d="M95.6245 46.7722C97.3106 47.0349 98.6244 48.3707 99.3032 50.2319L91.0699 48.9181C92.2742 47.3634 93.9384 46.5094 95.6245 46.7722Z" fill="#454369"/>
<path d="M111.784 60.8738C111.5 61.9029 110.602 62.538 109.748 62.2971C108.894 62.0562 108.434 61.049 108.697 60.0417C108.982 59.0125 109.879 58.3775 110.733 58.6184C111.587 58.8374 112.069 59.8446 111.784 60.8738Z" fill="#302E47"/>
<path d="M97.3543 56.9544C97.0697 57.9835 96.1719 58.6185 95.3179 58.3777C94.4639 58.1368 94.0041 57.1295 94.2669 56.1223C94.5515 55.0931 95.4493 54.4581 96.3033 54.699C97.1573 54.9179 97.6171 55.9252 97.3543 56.9544Z" fill="#302E47"/>
<path d="M100.595 66.7644C98.6463 66.3265 96.6974 65.8667 94.7486 65.4287C95.0552 66.3703 95.3179 67.5527 96.1719 68.0783C96.8288 68.4943 97.6609 68.5162 98.4054 68.2753C99.128 68.0126 100.07 67.3119 100.595 66.7644Z" fill="#DF917C"/>
<path d="M110.339 71.6035C105.566 72.7641 100.617 73.1801 95.7121 72.8298C96.9602 75.545 99.2375 78.0632 102.172 78.5887C104.099 78.9171 106.157 78.3697 107.624 77.0997C109.113 75.8297 110.361 73.5524 110.339 71.6035Z" fill="white"/>
<path d="M118.704 69.2381C118.135 71.3402 115.945 72.5884 113.843 72.019C111.741 71.4497 110.493 69.26 111.062 67.1579C111.631 65.0558 113.821 63.8076 115.923 64.377C118.025 64.9463 119.273 67.136 118.704 69.2381Z" fill="#DF917C"/>
<path d="M91.2669 64.7933C91.0261 66.9611 90.2159 68.6691 89.4495 68.5815C88.6831 68.4939 88.267 66.6545 88.5079 64.4867C88.7488 62.3189 89.559 60.6109 90.3254 60.6985C91.0917 60.7861 91.5078 62.6255 91.2669 64.7933Z" fill="#DF917C"/>
<path d="M124.266 70.5748L121.594 71.4069C120.609 69.699 120.346 67.6625 120.872 65.7794L121.945 61.7941C122.186 60.8744 121.967 59.8891 121.332 59.1665L119.011 56.5388C117.981 55.3564 117.609 53.7579 118.003 52.247L119.93 45.1523C114.938 47.5391 109.31 48.2617 103.836 47.6048C98.3616 46.9479 93.0625 44.6925 88.7926 41.189C87.7634 40.3569 86.778 39.3934 86.362 38.1453C85.9459 36.8971 86.362 35.2768 87.5444 34.7293C89.5809 33.7659 91.7049 36.3278 93.9603 36.1964C95.7996 36.0869 96.9821 34.2476 98.3178 32.9557C101.055 30.3061 105.566 29.7149 108.894 31.5761C110.712 32.5834 112.157 34.2257 114.084 34.9702C116.952 36.0869 120.215 35.014 123.237 35.5614C126.872 36.1964 129.806 39.1744 131.142 42.6342C132.477 46.072 132.433 49.9259 131.842 53.5608C130.835 59.6701 128.339 65.5385 124.616 70.4872C124.726 70.2026 124.178 70.8157 124.266 70.5748Z" fill="#454369"/>
<path d="M123.259 35.5165C120.237 34.9909 116.974 36.042 114.106 34.9253C112.179 34.1808 110.733 32.5385 108.916 31.5312C107.033 30.4801 104.756 30.2174 102.632 30.6553C103.354 30.6991 104.055 30.7867 104.756 31.0057C106.332 31.4874 107.799 32.6261 108.193 34.2245C108.434 35.2756 108.193 36.3705 108.15 37.4653C108.018 39.6769 108.719 41.9323 110.077 43.706C111.237 45.2388 112.879 46.3774 114.697 46.9686C116.514 46.5307 118.288 45.9176 119.974 45.1074L119.142 48.1949C120.784 48.392 122.405 48.5452 124.047 48.5671C125.952 48.589 127.879 48.392 129.696 47.8226C130.594 47.538 131.404 47.2533 132.171 46.9686C132.039 45.4577 131.733 43.9687 131.185 42.5673C129.828 39.1514 126.893 36.1734 123.259 35.5165Z" fill="#302E47"/>
<path d="M142.506 42.4145C142.462 42.2174 142.397 42.0203 142.309 41.8232C141.017 38.5825 138.63 34.4658 135.762 31.0718C135.105 30.3054 134.273 29.7361 133.309 29.4514C131.382 28.8602 127.813 27.8529 124.901 27.5464C124.113 27.4588 123.302 27.5902 122.558 27.8748L115.31 30.6557L127.966 48.6989C127.966 48.6989 128.404 49.4653 128.689 51.239C133.922 49.4872 138.718 46.4435 142.506 42.4145Z" fill="#82CDF7"/>
<path d="M142.637 43.0938C142.616 42.853 142.572 42.634 142.506 42.415C138.718 46.4222 133.901 49.4878 128.667 51.2177C129.105 53.8672 129.193 58.794 127.025 66.8522C127.025 66.8522 132.302 65.4946 136.309 63.7866C138.214 62.9764 139.703 61.3779 140.36 59.4072C141.543 55.7723 143.294 49.1812 142.637 43.0938Z" fill="#003781"/>
<path d="M110.712 24.9629C113.514 29.5175 110.208 36.0209 113.033 40.5755C114.565 43.028 117.456 44.1885 120.215 45.0425C122.974 45.8965 125.908 46.6629 127.966 48.6993C127.791 43.7506 126.105 39.1084 123.018 35.2326C119.405 31.8605 110.712 24.9629 110.712 24.9629Z" fill="#003781"/>
<path d="M127.816 79.0432C131.454 78.9194 134.302 75.8698 134.178 72.2319C134.055 68.594 131.005 65.7452 127.367 65.869C123.729 65.9929 120.881 69.0424 121.004 72.6803C121.128 76.3183 124.178 79.167 127.816 79.0432Z" fill="#EBAE90"/>
<path d="M131.667 73.5739C131.054 75.8293 128.733 77.165 126.477 76.5519C124.222 75.9388 122.886 73.6177 123.499 71.3623C124.113 69.1069 126.434 67.7712 128.689 68.3843C130.944 68.9974 132.28 71.3185 131.667 73.5739Z" fill="#DF917C"/>
<path d="M137.82 146.316C137.842 149.075 138.762 151.944 140.36 154.287C141.083 155.36 140.623 156.827 139.397 157.287C139.375 157.287 139.375 157.287 139.353 157.309C138.608 157.593 137.754 157.374 137.207 156.783C134.317 153.564 132.324 149.185 131.711 144.827C131.426 142.856 131.667 140.842 132.302 138.937L135.959 127.923C138.411 120.565 145.506 115.77 153.236 116.23L160.79 116.689L153.936 124.616C154.812 128.536 154.659 132.609 153.542 136.463L152.535 139.922C153.192 141.192 154.681 142.112 156.104 142.134C156.63 142.134 157.199 142.068 157.637 142.353C158.272 142.747 158.272 143.754 157.79 144.345C157.309 144.937 156.542 145.178 155.798 145.265C154.133 145.462 152.425 145.068 151.024 144.148C149.623 143.229 148.572 141.827 148.09 140.229C148.375 141.28 148.659 142.331 148.944 143.382C149.207 144.367 150.192 145.353 151.112 145.791C152.031 146.229 153.039 146.491 153.871 147.083C154.681 147.674 155.272 148.791 154.856 149.71C154.462 150.608 153.345 150.915 152.382 150.958C150.192 151.068 147.98 150.323 146.294 148.922C144.608 147.521 143.47 145.484 143.163 143.316C143.054 146.229 144.148 149.25 146.535 150.958C147.192 151.44 147.937 151.812 148.506 152.382C149.097 152.951 149.513 153.783 149.316 154.571C149.141 155.294 148.484 155.841 147.783 156.039C147.061 156.236 146.294 156.148 145.594 155.929C143.557 155.36 141.783 153.98 140.535 152.272C139.265 150.564 138.258 148.396 137.82 146.316Z" fill="#82CDF7"/>
<path d="M195.388 0H190.023L189.169 3.30646C187.702 3.65681 186.322 4.24803 185.074 5.01443L182.118 3.28456L178.33 7.07275L180.06 10.0289C179.293 11.277 178.724 12.6565 178.352 14.1236L175.045 14.9776V20.3424L178.352 21.1964C178.702 22.6635 179.293 24.043 180.06 25.2911L178.33 28.2472L182.118 32.0354L185.074 30.3055C186.322 31.0719 187.702 31.6413 189.169 32.0135L190.023 35.32H195.388L196.242 32.0135C197.709 31.6632 199.088 31.0719 200.336 30.3055L203.292 32.0354L207.081 28.2472L205.351 25.2911C206.117 24.043 206.686 22.6635 207.059 21.1964L210.365 20.3424V14.9776L207.059 14.1236C206.708 12.6565 206.117 11.277 205.351 10.0289L207.081 7.07275L203.292 3.28456L200.358 5.01443C199.11 4.24803 197.731 3.67871 196.263 3.30646L195.388 0ZM199.548 17.649C199.548 21.4153 196.482 24.4809 192.716 24.4809C188.95 24.4809 185.884 21.4153 185.884 17.649C185.884 13.8827 188.95 10.8172 192.716 10.8172C196.482 10.8172 199.548 13.8827 199.548 17.649Z" fill="#FFDC93"/>
<path d="M160.834 21.3711C164.622 21.3711 167.71 24.4586 167.71 28.2468C167.71 32.035 164.622 35.1225 160.834 35.1225C157.046 35.1225 153.958 32.035 153.958 28.2468C153.958 24.4586 157.046 21.3711 160.834 21.3711Z" fill="#FFDC93"/>
<path d="M60.333 25.5206C61.0477 21.1281 58.0663 16.9879 53.6738 16.2731C49.2813 15.5584 45.141 18.5399 44.4263 22.9324C43.7115 27.3249 46.693 31.4651 51.0855 32.1799C55.478 32.8946 59.6183 29.9132 60.333 25.5206Z" fill="#FFDC93"/>
<path d="M39.3272 15.5467C39.3272 17.6926 37.5973 19.4225 35.4514 19.4225C33.3055 19.4225 31.5756 17.6926 31.5756 15.5467C31.5756 13.4008 33.3055 11.6709 35.4514 11.6709C37.5973 11.6928 39.3272 13.4227 39.3272 15.5467Z" fill="#FFDC93"/>
<path d="M151.542 19.1514C151.914 17.5865 150.947 16.0166 149.382 15.6449C147.817 15.2732 146.247 16.2405 145.875 17.8053C145.504 19.3701 146.471 20.94 148.036 21.3117C149.601 21.6834 151.17 20.7162 151.542 19.1514Z" fill="#FFDC93"/>
</g>
<defs>
<clipPath id="clip0_1825_10979">
<rect width="210.365" height="217" fill="white"/>
</clipPath>
</defs>
</svg>
