<svg width="29" height="25" viewBox="0 0 29 25" fill="none" xmlns="http://www.w3.org/2000/svg">
<path d="M15.0712 0.699239C14.9056 0.570121 14.7016 0.5 14.4916 0.5C14.2816 0.5 14.0776 0.570121 13.912 0.699239L0.5 11.1572L1.66013 12.6244L3.3 11.3458V22.8995C3.30099 23.3943 3.49797 23.8685 3.84782 24.2183C4.19768 24.5682 4.6719 24.7652 5.16667 24.7662H23.8333C24.3281 24.7652 24.8023 24.5682 25.1522 24.2183C25.502 23.8685 25.699 23.3943 25.7 22.8995V11.3542L27.3399 12.6328L28.5 11.1656L15.0712 0.699239ZM16.3667 22.8995H12.6333V15.4328H16.3667V22.8995ZM18.2333 22.8995V15.4328C18.2328 14.9379 18.036 14.4634 17.6861 14.1135C17.3361 13.7635 16.8616 13.5667 16.3667 13.5662H12.6333C12.1384 13.5667 11.6639 13.7635 11.3139 14.1135C10.964 14.4634 10.7672 14.9379 10.7667 15.4328V22.8995H5.16667V9.89071L14.5 2.62004L23.8333 9.90004V22.8995H18.2333Z" fill="white"/>
</svg>
