<svg width="49" height="49" viewBox="0 0 49 49" fill="none" xmlns="http://www.w3.org/2000/svg">
<path d="M24.1 0C10.3 0 0 10.3 0 24.1C0 37.9 10.3 48.2 24.1 48.2C37.9 48.2 48.2 37.9 48.2 24.1C48.2 10.3 37.9 0 24.1 0ZM24.1 44.3C12.5 44.3 4.1 35.8 4.1 24.1C4.1 12.4 12.5 3.9 24.1 3.9C35.7 3.9 44.1 12.5 44.1 24.1C44.1 35.8 35.7 44.3 24.1 44.3Z" fill="white"/>
<mask id="mask0_901_6132" style="mask-type:luminance" maskUnits="userSpaceOnUse" x="2" y="2" width="44" height="45">
<path d="M24.1 46.0001C11.5 46.0001 2.40002 36.8001 2.40002 24.1001C2.40002 11.4001 11.5 2.20007 24.1 2.20007C36.6 2.20007 45.8 11.5001 45.8 24.1001C45.8 36.8001 36.6 46.0001 24.1 46.0001Z" fill="white"/>
</mask>
<g mask="url(#mask0_901_6132)">
<path fill-rule="evenodd" clip-rule="evenodd" d="M28.7998 11C30.6998 11.3 32.0998 13.1 31.7998 15C31.4998 17 29.6998 18.3 27.7998 18C25.7998 17.7 24.4998 15.9 24.7998 14C24.9998 12 26.7998 10.7 28.7998 11ZM35.4998 19.7L31.1998 24C30.0998 18.3 28.9998 19.1 23.0998 16.4L14.5998 8.49999C13.8998 7.99999 12.8998 7.99999 12.2998 8.69999C11.6998 9.29999 11.7998 10.3 12.3998 10.9L21.3998 19.3C19.1998 32.6 18.0998 28 24.2998 39.2L19.6998 47C19.1998 47.9 19.4998 49 20.2998 49.5C20.4998 49.6 20.6998 49.7 20.9998 49.7C21.6998 49.8 22.3998 49.5 22.7998 48.8C26.3998 42.6 29.7998 41.4 26.2998 35.2L28.3998 37.8L30.8998 47.4C31.0998 48.1 31.6998 48.6 32.3998 48.7C32.5998 48.7 32.8998 48.7 33.0998 48.6C35.7998 47.9 32.2998 36.9 31.3998 35.7L26.2998 29.4L27.9998 24.4L28.5998 27.4C28.6998 28 29.0998 28.4 29.6998 28.6C29.7998 28.6 29.8998 28.7 29.8998 28.7C30.8998 28.8 35.7998 23.6 37.5998 21.7C38.0998 21.1 38.0998 20.1 37.4998 19.6C36.9998 19.1 36.0998 19.1 35.4998 19.7Z" fill="white"/>
</g>
<mask id="mask1_901_6132" style="mask-type:luminance" maskUnits="userSpaceOnUse" x="2" y="2" width="44" height="45">
<path d="M24.1 46.0001C11.5 46.0001 2.40002 36.8001 2.40002 24.1001C2.40002 11.4001 11.5 2.20007 24.1 2.20007C36.6 2.20007 45.8 11.5001 45.8 24.1001C45.8 36.8001 36.6 46.0001 24.1 46.0001Z" fill="white"/>
</mask>
<g mask="url(#mask1_901_6132)">
<path d="M38.8001 21.0001C38.0001 19.2001 35.8001 18.2001 32.6001 18.2001C31.7001 18.2001 30.6001 18.3001 29.6001 18.5001C29.6001 18.5001 29.6001 18.5001 29.5001 18.5001C30.1001 19.0001 30.5001 19.5001 30.9001 20.3001C31.5001 20.2001 32.1001 20.2001 32.6001 20.2001C33.2001 20.2001 33.7001 20.2001 34.2001 20.3001C35.6001 20.5001 36.6001 21.0001 36.9001 21.8001C37.4001 22.8001 36.7001 24.4001 35.2001 26.1001C33.4001 28.0001 30.8001 29.9001 27.6001 31.3001C21.0001 34.3001 15.3001 34.0001 14.4001 31.9001C13.7001 30.3001 15.6001 27.4001 19.4001 24.8001C19.6001 24.0001 19.7001 23.1001 19.9001 22.1001C14.3001 25.4001 11.2001 29.6001 12.6001 32.7001C13.3001 34.2001 14.8001 35.0001 16.9001 35.4001C19.9001 35.8001 24.1001 35.1001 28.5001 33.1001C31.9001 31.6001 34.8001 29.6001 36.7001 27.4001C38.8001 25.1001 39.6001 22.8001 38.8001 21.0001Z" fill="white"/>
</g>
</svg>
