<svg width="53" height="53" viewBox="0 0 53 53" fill="none" xmlns="http://www.w3.org/2000/svg">
<circle cx="26.5" cy="26.5" r="21.8699" fill="white" stroke="#003781" stroke-width="2"/>
<path d="M14.7764 26.421C14.6742 26.4207 14.573 26.4412 14.4786 26.4811C14.3842 26.5209 14.2985 26.5795 14.2263 26.6534C14.1541 26.7273 14.097 26.8151 14.0582 26.9116C14.0193 27.0082 13.9996 27.1116 14 27.216V40.0126C13.9998 40.1168 14.0197 40.2201 14.0587 40.3165C14.0976 40.4128 14.1548 40.5004 14.2269 40.5741C14.299 40.6478 14.3847 40.7062 14.479 40.746C14.5733 40.7858 14.6744 40.8062 14.7764 40.8059H38.4033V40.8094C38.5054 40.8096 38.6064 40.7892 38.7007 40.7494C38.795 40.7096 38.8807 40.6512 38.9528 40.5775C39.025 40.5038 39.0821 40.4162 39.1211 40.3199C39.16 40.2235 39.1799 40.1203 39.1797 40.016V27.216C39.1799 27.1118 39.16 27.0085 39.1211 26.9122C39.0821 26.8158 39.025 26.7283 38.9528 26.6545C38.8807 26.5808 38.795 26.5224 38.7007 26.4826C38.6064 26.4428 38.5054 26.4225 38.4033 26.4227L14.7764 26.421ZM17.9373 30.568H19.0044V35.7076H21.7401V36.6589H17.9373V30.568ZM22.8862 30.568H23.9533V36.6589H22.8862V30.568ZM24.9766 30.568H26.1563L27.6569 35.3899H27.7292L29.2181 30.568H30.3524L28.2905 36.6589H27.0587L24.9766 30.568ZM31.3791 30.5731H35.2374V31.5125H32.4479V33.1266H35.0862V34.0144H32.4479V35.7196H35.2374V36.664H31.3791V30.5731Z" fill="#214686"/>
<path d="M21.3059 11.2033C21.4223 11.3231 21.4877 11.4855 21.4877 11.6548C21.4877 11.8241 21.4223 11.9865 21.3059 12.1062C20.6519 12.7786 20.1331 13.5767 19.7791 14.4552C19.4251 15.3336 19.243 16.2751 19.243 17.226C19.243 18.1768 19.4251 19.1183 19.7791 19.9968C20.1331 20.8752 20.6519 21.6734 21.3059 22.3457C21.4191 22.4662 21.4816 22.6276 21.4802 22.7951C21.4787 22.9627 21.4132 23.1229 21.2979 23.2412C21.1827 23.3596 21.0268 23.4267 20.8638 23.4281C20.7009 23.4295 20.5439 23.365 20.4268 23.2486C17.1911 19.9223 17.1911 14.5296 20.4268 11.2033C20.5433 11.0837 20.7013 11.0165 20.8659 11.0165C21.0306 11.0165 21.1894 11.0837 21.3059 11.2033ZM32.1441 11.2033C35.3798 14.5296 35.3798 19.9232 32.1441 23.2495C32.0263 23.3623 31.8705 23.4237 31.7095 23.4208C31.5485 23.4179 31.3949 23.3508 31.281 23.2338C31.1671 23.1168 31.1019 22.9588 31.0991 22.7933C31.0962 22.6278 31.156 22.4677 31.2658 22.3465C31.9199 21.6742 32.4388 20.876 32.7929 19.9975C33.1469 19.1189 33.3291 18.1773 33.3291 17.2264C33.3291 16.2755 33.1469 15.3339 32.7929 14.4553C32.4388 13.5768 31.9199 12.7786 31.2658 12.1062C31.2047 12.0478 31.1557 11.9772 31.1218 11.8989C31.0878 11.8205 31.0695 11.7359 31.0681 11.6501C31.0666 11.5643 31.0819 11.4791 31.1132 11.3996C31.1445 11.32 31.191 11.2478 31.25 11.1871C31.309 11.1265 31.3793 11.0786 31.4567 11.0465C31.5341 11.0144 31.6169 10.9986 31.7004 11.0001C31.7838 11.0016 31.8661 11.0204 31.9424 11.0553C32.0186 11.0902 32.0872 11.1406 32.1441 11.2033ZM23.6492 13.6122C23.7656 13.732 23.831 13.8944 23.831 14.0637C23.831 14.233 23.7656 14.3953 23.6492 14.5151C23.3029 14.8711 23.0281 15.2937 22.8406 15.7588C22.6532 16.224 22.5567 16.7225 22.5567 17.226C22.5567 17.7294 22.6532 18.228 22.8406 18.6931C23.0281 19.1582 23.3029 19.5809 23.6492 19.9368C23.759 20.0579 23.8188 20.2181 23.8159 20.3836C23.8131 20.5491 23.7479 20.707 23.634 20.8241C23.5201 20.9411 23.3665 21.0082 23.2055 21.0111C23.0445 21.014 22.8887 20.9526 22.7709 20.8397C21.8386 19.8813 21.3149 18.5814 21.3149 17.226C21.3149 15.8706 21.8386 14.5707 22.7709 13.6122C22.8874 13.4926 23.0454 13.4254 23.2101 13.4254C23.3747 13.4254 23.5327 13.4926 23.6492 13.6122ZM29.8016 13.6122C30.7339 14.5707 31.2577 15.8706 31.2577 17.226C31.2577 18.5814 30.7339 19.8813 29.8016 20.8397C29.7443 20.9008 29.6758 20.9495 29.6 20.983C29.5242 21.0165 29.4426 21.0342 29.3601 21.0349C29.2776 21.0357 29.1957 21.0196 29.1194 20.9875C29.043 20.9554 28.9736 20.908 28.9152 20.8481C28.8568 20.7881 28.8106 20.7168 28.7793 20.6383C28.7481 20.5598 28.7323 20.4757 28.733 20.3909C28.7337 20.306 28.7508 20.2222 28.7833 20.1442C28.8158 20.0663 28.8631 19.9958 28.9225 19.9368C29.2687 19.5809 29.5434 19.1583 29.7308 18.6933C29.9182 18.2282 30.0146 17.7298 30.0146 17.2264C30.0146 16.723 29.9182 16.2246 29.7308 15.7595C29.5434 15.2945 29.2687 14.8719 28.9225 14.516C28.8127 14.3949 28.7529 14.2347 28.7558 14.0692C28.7586 13.9037 28.8238 13.7458 28.9377 13.6287C29.0516 13.5117 29.2052 13.4446 29.3662 13.4417C29.5272 13.4388 29.683 13.5002 29.8008 13.6131M26.2858 15.9487C26.6155 15.9487 26.9316 16.0833 27.1647 16.3229C27.3978 16.5625 27.5288 16.8875 27.5288 17.2264C27.5288 17.5653 27.3978 17.8902 27.1647 18.1299C26.9316 18.3695 26.6155 18.5041 26.2858 18.5041C25.9562 18.5041 25.6401 18.3695 25.407 18.1299C25.1739 17.8902 25.0429 17.5653 25.0429 17.2264C25.0429 16.8875 25.1739 16.5625 25.407 16.3229C25.6401 16.0833 25.9562 15.9487 26.2858 15.9487Z" fill="#214686"/>
<circle cx="44.3493" cy="10.3493" r="5.59929" fill="#FF3232" stroke="#224282" stroke-width="1.5"/>
</svg>
