<svg width="19" height="24" viewBox="0 0 19 24" fill="none" xmlns="http://www.w3.org/2000/svg">
<path d="M16.0088 8.69836H14.6927V5.1927C14.6927 3.81551 14.1456 2.49472 13.1718 1.52091C12.198 0.547086 10.8772 0 9.5 0C8.12281 0 6.80203 0.547086 5.82821 1.52091C4.85439 2.49472 4.3073 3.81551 4.3073 5.1927V8.69836H2.99118C2.19787 8.69836 1.43705 9.0135 0.876097 9.57446C0.315142 10.1354 0 10.8962 0 11.6895V20.7947C0.0022101 21.5873 0.318061 22.3469 0.878539 22.9074C1.43902 23.4678 2.19855 23.7837 2.99118 23.7859H16.0088C16.8014 23.7837 17.561 23.4678 18.1215 22.9074C18.6819 22.3469 18.9978 21.5873 19 20.7947V11.6895C19 10.8962 18.6849 10.1354 18.1239 9.57446C17.5629 9.0135 16.8021 8.69836 16.0088 8.69836ZM5.50378 5.1927C5.50378 4.13283 5.92481 3.11638 6.67424 2.36694C7.42368 1.6175 8.44014 1.19647 9.5 1.19647C10.5599 1.19647 11.5763 1.6175 12.3258 2.36694C13.0752 3.11638 13.4962 4.13283 13.4962 5.1927V8.69836H5.50378V5.1927ZM17.8035 20.7947C17.8001 21.2696 17.6099 21.7241 17.2741 22.06C16.9382 22.3958 16.4837 22.586 16.0088 22.5894H2.99118C2.51626 22.586 2.06177 22.3958 1.72594 22.06C1.39011 21.7241 1.19992 21.2696 1.19647 20.7947V11.6895C1.19647 11.2136 1.38556 10.7571 1.72213 10.4205C2.05871 10.0839 2.5152 9.89484 2.99118 9.89484H16.0088C16.4848 9.89484 16.9413 10.0839 17.2779 10.4205C17.6144 10.7571 17.8035 11.2136 17.8035 11.6895V20.7947Z" fill="white"/>
<path d="M10.6957 15.4223C10.6964 15.6315 10.6413 15.8371 10.5362 16.018C10.431 16.1988 10.2796 16.3484 10.0975 16.4513V18.246C10.0975 18.4046 10.0344 18.5568 9.92223 18.669C9.81004 18.7812 9.65788 18.8442 9.49921 18.8442C9.34055 18.8442 9.18839 18.7812 9.0762 18.669C8.96401 18.5568 8.90098 18.4046 8.90098 18.246V16.4513C8.71884 16.3484 8.5674 16.1988 8.46225 16.018C8.35711 15.8371 8.30205 15.6315 8.30274 15.4223C8.30274 15.105 8.4288 14.8007 8.65318 14.5763C8.87756 14.3519 9.18189 14.2258 9.49921 14.2258C9.81654 14.2258 10.1209 14.3519 10.3452 14.5763C10.5696 14.8007 10.6957 15.105 10.6957 15.4223Z" fill="white"/>
</svg>
