<svg width="30" height="31" viewBox="0 0 30 31" fill="none" xmlns="http://www.w3.org/2000/svg">
<path d="M4.78125 23.7015C4.78125 23.7015 7.8406 19.5748 15.3894 19.5748C22.9383 19.5748 25.999 23.7015 25.999 23.7015M15.3894 14.4998C16.4815 14.4998 17.5288 14.0415 18.301 13.2257C19.0732 12.4099 19.507 11.3035 19.507 10.1498C19.507 8.99611 19.0732 7.88967 18.301 7.07389C17.5288 6.25811 16.4815 5.7998 15.3894 5.7998C14.2974 5.7998 13.2501 6.25811 12.4779 7.07389C11.7057 7.88967 11.2719 8.99611 11.2719 10.1498C11.2719 11.3035 11.7057 12.4099 12.4779 13.2257C13.2501 14.0415 14.2974 14.4998 15.3894 14.4998Z" stroke="white" stroke-width="1.5" stroke-linecap="round" stroke-linejoin="round"/>
<path d="M15.3893 1C7.80883 1 1.66406 7.49165 1.66406 15.5C1.66406 23.5084 7.80883 30 15.3893 30C22.9697 30 29.1144 23.5084 29.1144 15.5C29.1144 7.49165 22.9697 1 15.3893 1Z" stroke="white" stroke-width="1.5" stroke-linecap="round" stroke-linejoin="round"/>
</svg>
