<svg width="28" height="29" viewBox="0 0 28 29" fill="none" xmlns="http://www.w3.org/2000/svg">
<mask id="mask0_285_3536" style="mask-type:luminance" maskUnits="userSpaceOnUse" x="4" y="17" width="20" height="10">
<path fill-rule="evenodd" clip-rule="evenodd" d="M4.66667 17.4121H23.1466V26.0151H4.66667V17.4121Z" fill="white"/>
</mask>
<g mask="url(#mask0_285_3536)">
<path fill-rule="evenodd" clip-rule="evenodd" d="M13.9077 19.1621C8.93655 19.1621 6.41655 20.0161 6.41655 21.7019C6.41655 23.4029 8.93655 24.2651 13.9077 24.2651C18.8777 24.2651 21.3965 23.4111 21.3965 21.7253C21.3965 20.0243 18.8777 19.1621 13.9077 19.1621ZM13.9077 26.0151C11.6222 26.0151 4.66655 26.0151 4.66655 21.7019C4.66655 17.8566 9.94105 17.4121 13.9077 17.4121C16.1932 17.4121 23.1465 17.4121 23.1465 21.7253C23.1465 25.5706 17.8732 26.0151 13.9077 26.0151Z" fill="white"/>
</g>
<mask id="mask1_285_3536" style="mask-type:luminance" maskUnits="userSpaceOnUse" x="7" y="2" width="14" height="14">
<path fill-rule="evenodd" clip-rule="evenodd" d="M7.71152 2.8335H20.1016V15.2219H7.71152V2.8335Z" fill="white"/>
</mask>
<g mask="url(#mask1_285_3536)">
<path fill-rule="evenodd" clip-rule="evenodd" d="M13.9077 4.49901C11.4099 4.49901 9.37755 6.53017 9.37755 9.02801C9.36939 11.5177 11.3866 13.5477 13.8739 13.557L13.9077 14.39V13.557C16.4044 13.557 18.4356 11.5247 18.4356 9.02801C18.4356 6.53017 16.4044 4.49901 13.9077 4.49901ZM13.9077 15.2218H13.8704C10.4614 15.2113 7.69989 12.4312 7.71155 9.02451C7.71155 5.61201 10.4906 2.83301 13.9077 2.83301C17.3237 2.83301 20.1016 5.61201 20.1016 9.02801C20.1016 12.444 17.3237 15.2218 13.9077 15.2218Z" fill="white"/>
</g>
</svg>
