
<svg width="34" height="34" viewBox="0 0 34 34" fill="none" xmlns="http://www.w3.org/2000/svg">
<path d="M19.3897 8.18393L20.2933 9.83725M22.1003 13.1439L23.0039 14.7972M24.811 18.1039L25.7145 19.7572M8.30686 14.9438L9.2104 16.5972M11.0175 19.9038L11.921 21.5571M13.7281 24.8638L14.6316 26.5171M27.1003 6.78759L27.0781 6.80111C26.2383 7.31335 25.6232 8.15299 25.3683 9.13531C25.1134 10.1176 25.2394 11.1622 25.7186 12.0392C26.1979 12.9161 26.9912 13.5537 27.9239 13.8116C28.8566 14.0695 29.8524 13.9266 30.6922 13.4144L30.7151 13.3983L32.9748 17.5332C33.2145 17.9717 33.2775 18.494 33.15 18.9851C33.0225 19.4763 32.715 19.8961 32.2951 20.1522L11.6889 32.7208C11.269 32.977 10.7711 33.0484 10.3047 32.9194C9.83837 32.7905 9.44175 32.4717 9.20212 32.0332L6.94327 27.8999C7.78308 27.3877 8.39811 26.548 8.65306 25.5657C8.90801 24.5834 8.78199 23.5388 8.30272 22.6619C7.82345 21.7849 7.0302 21.1473 6.09747 20.8894C5.16473 20.6315 4.16893 20.7744 3.32911 21.2866L1.07026 17.1533C0.83063 16.7148 0.767618 16.1926 0.895091 15.7014C1.02256 15.2102 1.33008 14.7904 1.74999 14.5343L22.3562 1.9657C22.7761 1.70958 23.274 1.63814 23.7404 1.76709C24.2067 1.89605 24.6034 2.21483 24.843 2.65332L27.1003 6.78759Z" stroke="white" stroke-width="1.5" stroke-linecap="round" stroke-linejoin="round"/>
</svg>
