<svg width="27" height="27" viewBox="0 0 27 27" fill="none" xmlns="http://www.w3.org/2000/svg">
<path d="M15.4229 6.51129L16.1043 7.75805M17.467 10.2516L18.1483 11.4983M19.511 13.9919L20.1924 15.2386M6.79693 11.7726L7.47829 13.0194M8.841 15.5129L9.52235 16.7597M10.8851 19.2532L11.5664 20.5M21.3913 5.36442L21.3741 5.37495C20.7204 5.77363 20.2371 6.4187 20.0305 7.16824C19.8239 7.91778 19.9108 8.71039 20.2722 9.37172C20.6336 10.033 21.2399 10.5089 21.9577 10.6946C22.6754 10.8803 23.4459 10.7607 24.0995 10.362L24.1173 10.3495L25.8214 13.4676C26.0021 13.7983 26.0456 14.1946 25.9422 14.5694C25.8389 14.9441 25.5973 15.2667 25.2704 15.466L9.23228 25.2484C8.90546 25.4477 8.52024 25.5075 8.16136 25.4147C7.80249 25.3218 7.49935 25.0839 7.31864 24.7532L5.61526 21.6363C6.2689 21.2376 6.7522 20.5926 6.95884 19.843C7.16547 19.0935 7.07852 18.3009 6.71711 17.6396C6.3557 16.9782 5.74943 16.5024 5.03167 16.3167C4.31392 16.1309 3.54348 16.2506 2.88983 16.6493L1.18644 13.5324C1.00574 13.2017 0.96226 12.8054 1.06558 12.4306C1.1689 12.0559 1.41055 11.7333 1.73737 11.534L17.7755 1.75162C18.1024 1.55228 18.4876 1.49246 18.8464 1.58531C19.2053 1.67817 19.5085 1.9161 19.6892 2.24676L21.3913 5.36442Z" stroke="#EDA740" stroke-width="1.2" stroke-linecap="round" stroke-linejoin="round"/>
</svg>
