<svg width="25" height="37" viewBox="0 0 25 37" fill="none" xmlns="http://www.w3.org/2000/svg">
<path d="M19.6484 4.94202C19.6484 4.94202 18.2722 4.34525 17.4503 4.3266C16.6285 4.30795 16.552 4.90472 17.0872 4.90472C17.6033 4.90472 19.6484 4.94202 19.6484 4.94202Z" fill="#419445"/>
<path d="M1.24231 25.5867C2.58023 25.1018 6.36463 24.1694 7.64521 24.2813C8.16127 23.9083 9.97702 21.7263 10.0152 21.5585C10.9327 22.5655 11.9839 22.8826 13.1498 23.125C12.6146 23.6658 10.0917 26.1089 9.53741 26.6124C8.88757 26.9854 8.29506 27.5449 7.35852 27.2838C4.95026 26.6124 2.86693 26.5378 1.26142 26.6497C0.688026 25.997 0.171971 26.9294 1.24231 25.5867Z" fill="#F5C9B7"/>
<path d="M18.425 24.0948C18.6162 23.9829 19.1705 23.7777 19.1513 23.5353C19.1322 23.2928 17.3929 22.4723 16.399 23.5353C15.3861 24.5983 14.0672 25.4189 14.1819 25.6613C14.2966 25.9037 14.6598 26.0156 15.5963 25.6613C16.5328 25.307 18.1575 24.2626 18.425 24.0948Z" fill="#419445"/>
<path d="M3.26839 26.8735C3.63154 26.4073 3.26839 25.9411 2.82879 25.5867C3.21105 25.4002 3.23017 25.0832 3.2875 24.9154C2.695 24.8967 1.75845 24.8408 1.20417 24.99C0.726343 25.1205 0.401419 26.5378 0.305853 27.0973C0.0764956 28.5333 0.0956087 29.5777 1.35708 29.9879C1.75845 30.1185 2.17894 29.8388 2.33185 29.2606C2.58032 28.3841 2.94347 27.6941 3.26839 26.8735Z" fill="#419445"/>
<path d="M1.52904 24.9154C1.52904 24.9154 1.28056 25.5495 0.955641 26.2208C0.630718 26.8922 0.172002 27.806 0.324907 28.496C0.477812 29.1861 1.07032 29.2607 1.49081 29.3726C1.9113 29.4845 1.89219 29.9134 1.89219 29.9134C1.89219 29.9134 1.56726 30.2677 0.783623 29.8015C-1.64239e-05 29.3353 -0.0573559 28.5147 0.0190967 27.7687C0.0955494 27.0041 0.458699 25.9038 0.573378 25.4562C0.630718 25.2324 0.840962 25.0086 1.07032 24.9527C1.29968 24.8967 1.52904 24.9154 1.52904 24.9154Z" fill="#333333"/>
<path d="M2.67585 26.0157C2.67585 26.0157 2.23624 26.7617 2.08334 27.1906C1.93043 27.6195 1.91132 28.3282 2.3127 28.4587C2.59939 28.552 3.11545 27.4144 3.34481 26.7617C3.57416 26.1089 2.67585 26.0157 2.67585 26.0157Z" fill="#333333"/>
<path d="M1.81571 26.7057C1.81571 26.7057 2.27443 26.7989 2.56112 27.0041C2.84782 27.2092 3.07718 27.3957 3.07718 27.3957L2.98161 27.6568C2.98161 27.6568 2.69492 27.3584 2.42733 27.1719C2.14063 26.9854 1.73926 26.8922 1.73926 26.8922L1.81571 26.7057Z" fill="white"/>
<path d="M1.62462 27.2465C1.62462 27.2465 2.08333 27.3398 2.37003 27.5449C2.65673 27.75 2.80963 27.9179 2.80963 27.9179L2.71407 28.1417C2.71407 28.1417 2.50382 27.9179 2.21713 27.7314C1.93043 27.5449 1.52905 27.4517 1.52905 27.4517L1.62462 27.2465Z" fill="white"/>
<path d="M2.82869 26.6311C2.82869 26.6311 2.56111 26.1649 2.67579 26.0157C2.77135 25.8478 3.97548 26.0903 4.07105 26.4632C4.16661 26.8176 3.61233 26.7803 3.26829 26.8922C2.92426 26.9668 2.82869 26.6311 2.82869 26.6311Z" fill="#333333"/>
<path d="M17.1444 20.8685C17.1444 20.8685 18.1765 22.5282 18.7117 24.0948C18.9602 24.8034 18.9411 25.0086 18.9602 26.1089C18.9602 27.2092 19.0175 27.5635 19.2086 29.5403C19.3998 31.4985 19.7438 34.128 19.7438 34.128L18.3294 35.0232C18.3294 35.0232 16.6093 31.1815 16.1314 29.8201C15.6536 28.4587 15.7874 25.9783 15.7874 25.9783L14.0481 22.4164L17.1444 20.8685Z" fill="#F5C9B7"/>
<path d="M17.6031 34.2026C17.6031 34.2026 17.8134 35.0418 17.8516 35.6013C17.8898 36.1608 18.081 36.6457 18.6353 36.7576C19.2087 36.8508 19.6865 36.7762 20.6039 36.6084C22.1712 36.3473 23.0313 36.0862 23.1651 35.5267C23.2798 34.9859 22.9931 34.557 21.9801 34.4824C21.6934 34.4637 20.948 34.4264 20.6421 34.2399C20.3746 34.0721 20.1834 33.9042 20.107 33.755C19.9541 33.4567 19.5336 33.3821 18.9984 33.7737C18.6161 34.0534 18.5206 34.2586 18.4824 34.4637C18.0428 34.2772 17.7943 34.184 17.6031 34.2026Z" fill="#419445"/>
<path d="M19.266 34.0534C19.266 34.0534 19.3233 34.4264 19.8776 34.6875C20.4319 34.9486 20.9097 34.874 21.2346 34.7807C21.5978 34.6688 21.9227 34.501 21.9227 34.501C21.9227 34.501 21.12 34.501 20.7186 34.2959C20.3172 34.1094 20.107 33.7737 20.107 33.7737L19.266 34.0534Z" fill="#333333"/>
<path d="M22.6108 34.9672C22.1329 34.9113 21.5022 35.3775 21.2537 35.5453C20.4701 36.0675 20.1643 36.0675 19.3615 36.1608C18.5588 36.254 17.9089 35.9183 17.9089 35.9183C17.9089 35.9183 17.9472 36.5337 18.1001 36.7202C18.253 36.8881 18.9793 37.0186 19.5718 36.9813C20.1643 36.9627 21.7125 36.6456 22.4388 36.3286C23.1651 36.0116 23.6811 35.0978 22.6108 34.9672Z" fill="#333333"/>
<path d="M23.1842 35.5454C23.1842 35.5454 22.8593 35.247 22.1138 35.5454C21.3684 35.8438 21.0435 36.4033 20.1261 36.6457C19.2086 36.8881 18.2721 36.8135 18.2721 36.8135C18.2721 36.8135 18.4441 36.9627 18.9028 36.9814C19.4762 37.0187 20.4128 36.9254 21.2155 36.7203C22.6681 36.3473 23.0886 35.993 23.1842 35.5454Z" fill="#232323"/>
<path d="M19.6292 34.7248L20.6422 34.2586L20.3746 34.0721C20.3746 34.0721 19.6674 34.3705 19.3616 34.501C19.3807 34.557 19.4954 34.6502 19.6292 34.7248Z" fill="white"/>
<path d="M20.8142 34.3332L19.9541 34.8554C19.9541 34.8554 20.1835 34.9486 20.3173 34.93C20.4893 34.8367 21.1009 34.3891 21.1009 34.3891L20.8142 34.3332Z" fill="white"/>
<path d="M23.1078 4.86747C22.4389 4.56908 22.0757 4.47583 21.789 4.77422C21.4259 5.1472 20.9863 5.12855 21.0818 5.61343C20.5276 6.434 21.3685 6.90023 21.8273 6.90023C21.9802 7.94458 21.4068 8.72785 21.5979 9.49247C21.273 9.38057 20.0497 8.52271 18.9412 7.68349C18.1958 5.87452 16.6285 5.89317 16.8196 5.96777C16.9152 6.00507 16.8005 9.67896 17.6033 10.0706C18.234 10.369 19.8777 10.8912 20.5658 11.1149C21.3494 11.376 22.0375 11.8236 22.4962 11.7117C23.0314 11.5998 23.4901 11.0031 23.5666 9.79085C23.643 8.7092 23.3181 7.6462 23.2034 6.86293C23.1078 6.37805 23.815 5.1845 23.1078 4.86747Z" fill="#F3BAA6"/>
<path d="M12.3662 18.0897C12.8823 17.9219 15.711 16.0943 16.6667 15.8332C16.9916 16.8029 17.737 19.2833 18.2722 21.2042C18.4251 21.745 19.1514 22.2485 19.1514 23.5167C18.2722 23.2742 17.2783 23.5726 16.7431 23.9269C16.1124 24.3559 15.1185 25.2324 14.182 25.6427C13.6277 24.4491 12.3471 21.372 12.1751 20.5141C11.984 19.7495 11.4106 18.4068 12.3662 18.0897Z" fill="#419445"/>
<path d="M7.2439 23.7031C8.27601 22.1553 8.29512 22.1366 8.96408 19.8055C8.83029 17.2692 9.63304 17.0081 10.6843 15.1245H13.2454C13.2645 15.1245 15.5008 17.0081 15.5772 17.9965C15.6346 18.873 15.8257 21.1669 14.4304 21.5771C14.1629 22.9572 12.0031 25.1578 11.3914 26.4632C9.95796 26.743 8.33335 24.8594 7.2439 23.7031Z" fill="#4EA550"/>
<path d="M17.1445 6.78833C15.883 5.37099 15.1759 6.26616 13.4748 7.21726C12.3471 8.00053 11.2577 8.33622 11.1239 10.2757C11.0474 11.4133 10.6652 11.7117 10.6269 12.7934C10.5696 13.9496 9.59482 16.7284 9.13611 17.8846C9.40369 19.3579 15.3861 21.055 17.7179 18.9103C17.9473 18.1643 17.4121 17.0454 17.1636 16.4486C17.5268 15.4229 17.393 14.0615 18.0619 12.4763C19.1514 9.62301 18.3104 8.11243 17.1445 6.78833Z" fill="#58B75A"/>
<path d="M12.6529 7.44105L13.2836 7.40375C13.2836 7.40375 14.0481 7.98187 14.1819 9.21272C14.2584 9.97734 13.9526 11.7304 13.2836 12.122C12.6337 12.5136 11.4487 12.3085 11.4487 12.3085L12.6529 7.44105Z" fill="#333333"/>
<path d="M12.4236 16.9708C12.4236 16.9708 13.9909 17.4743 14.7936 17.3997C15.5964 17.3251 16.1315 16.747 16.1315 16.747C16.1315 16.747 15.2714 17.0081 14.6216 16.9894C13.9717 16.9335 12.4236 16.9708 12.4236 16.9708Z" fill="#6FCE6F"/>
<path d="M13.4747 7.21725C13.4747 7.21725 14.5068 8.14971 14.9656 8.78378C15.4243 9.4365 16.0932 10.3503 17.0871 9.95868C18.081 9.56705 17.6605 8.89568 17.3165 8.00052C16.9724 7.10535 16.2079 6.28479 16.2079 6.28479C16.2079 6.28479 14.5068 6.52723 13.4747 7.21725Z" fill="#333333"/>
<path d="M14.8318 5.40827C14.8318 5.40827 16.3417 5.22178 16.8195 5.9491C16.5328 6.67642 16.552 7.34779 17.1062 8.31754C17.5076 9.02621 17.2783 9.41785 16.896 9.56704C16.4946 9.71623 15.7492 9.23136 15.4243 8.80242C14.7553 7.90726 14.3348 7.47833 13.8379 7.0121C14.1437 6.63912 14.8318 5.40827 14.8318 5.40827Z" fill="#F3BAA6"/>
<path d="M17.7562 3.59932C17.5459 3.0212 17.2019 2.31253 16.6094 2.03279C16.036 1.75305 15.2332 1.93955 14.6598 2.14469C13.7615 2.46172 13.4175 3.65527 13.9144 4.75557C14.3731 5.78128 15.5964 7.19862 16.8769 7.06807C17.5268 7.01213 17.8708 6.41535 17.9855 5.76263C18.1193 4.97936 17.9282 4.06555 17.7562 3.59932Z" fill="#F5C9B7"/>
<path d="M12.9778 16.8403C12.7102 16.7843 12.3853 16.9895 12.0986 17.0454C11.6972 15.8519 11.0665 14.1175 10.8562 13.9496C11.0283 13.7259 11.6972 12.6442 12.0795 12.0661C13.1689 11.9169 13.857 10.6301 13.8379 9.45519C13.8188 8.50408 13.2072 7.62757 12.9778 7.55298C10.9136 6.76971 10.0153 10.2385 10.0344 11.0031C9.61388 11.5253 9.23162 11.9915 8.94492 12.495C8.56266 13.1477 8.29507 13.7445 8.65822 14.5091C9.09783 15.4602 10.0917 16.8216 10.8754 17.6795C10.8754 17.6795 10.9518 18.5187 11.5825 19.1155C12.1368 19.6377 13.3792 19.3393 13.7041 18.6679C13.9908 18.0711 13.5512 17.9033 13.3409 17.6235C13.4174 17.0454 13.188 16.8962 12.9778 16.8403Z" fill="#F5C9B7"/>
<path d="M20.0305 33.9602L20.1643 33.8483C20.1643 33.8483 20.1643 33.3448 20.1643 33.177C20.1643 33.0091 19.5336 32.8786 19.266 33.2889C18.9984 33.6991 19.2851 34.1094 19.2851 34.1094L20.0305 33.9602Z" fill="#333333"/>
<path d="M13.2836 4.47582C13.2836 4.47582 13.6086 5.0726 13.8188 5.50153C14.029 5.94911 13.5512 6.28479 13.5512 6.28479L14.029 6.19155C14.029 6.19155 13.4748 6.52723 13.0352 6.45264C13.2454 6.71373 13.3983 6.95616 13.8379 7.01211C14.2775 7.06806 14.7745 6.65778 14.9274 6.11695C15.0803 5.57612 15.1949 4.14014 15.1949 4.14014L13.2836 4.47582Z" fill="#232323"/>
<path d="M15.4626 5.09127C15.4626 5.09127 15.0421 4.55045 14.7363 4.92343C14.4305 5.29641 15.195 5.98643 15.195 5.98643L15.4626 5.09127Z" fill="#F5C9B7"/>
<path d="M13.2454 4.81155C13.2454 4.81155 14.6024 4.73695 15.9977 4.27072C17.393 3.78584 17.7561 3.618 17.7561 3.618L17.3547 2.55499C17.3547 2.55499 15.042 3.33826 14.2202 3.45015C13.3983 3.56205 12.8631 3.5807 12.8631 3.5807C12.8631 3.5807 12.7676 4.38261 13.2454 4.81155Z" fill="#419445"/>
<path d="M20.7378 6.60184L21.6743 6.90023L24.1399 7.68349C24.4075 7.75809 24.7516 7.44105 24.9045 6.95617C25.0574 6.4713 24.9809 6.02372 24.7133 5.93047L23.4519 5.53884L21.3112 4.84882L20.7378 6.60184Z" fill="#419445"/>
<path d="M21.8081 6.5459C21.9228 6.41535 22.0184 6.24751 22.0757 6.04237C22.2286 5.55749 22.1521 5.10991 21.8846 5.01666L23.2798 5.46424C23.5474 5.53884 23.6239 6.00507 23.471 6.48995C23.4136 6.69509 23.318 6.86293 23.2034 6.99348L21.8081 6.5459Z" fill="#58B75A"/>
<path d="M22.1521 6.39669C22.1904 6.30345 22.2477 6.2102 22.2668 6.11695C22.4197 5.63207 22.3433 5.18449 22.0757 5.09125L22.3242 5.16584C22.5917 5.24044 22.6682 5.70667 22.5153 6.19155C22.4771 6.2848 22.4388 6.37804 22.4006 6.47129L22.1521 6.39669Z" fill="#333333"/>
<path d="M20.6232 6.50858C20.6232 6.50858 20.604 6.48993 20.5849 6.47128L20.5658 6.45263C20.5085 6.35939 20.3938 6.15425 20.3938 5.83721C20.3938 5.72532 20.4511 5.66937 20.5085 5.66937C20.5085 5.63207 20.5276 5.59477 20.5276 5.57612C20.5467 5.53882 20.5467 5.50153 20.5658 5.48288C20.5276 5.42693 20.5085 5.37098 20.5658 5.27774C20.8143 4.90475 21.1392 4.8488 21.1392 4.8488C21.1966 4.8488 21.2348 4.83015 21.2921 4.8488C21.5597 4.9234 21.6362 5.38963 21.4832 5.87451C21.3303 6.35939 20.9863 6.67642 20.7187 6.60183C20.6996 6.58318 20.6614 6.54588 20.6232 6.50858Z" fill="#58B75A"/>
<path d="M20.432 5.53882C20.5085 5.29638 20.6805 5.12853 20.8143 5.16583C20.9481 5.20313 20.9863 5.44557 20.9099 5.68801C20.8334 5.93045 20.6614 6.09829 20.5276 6.06099C20.3938 6.00505 20.3556 5.78126 20.432 5.53882Z" fill="#419445"/>
<path d="M20.8143 5.16586L20.1835 4.97937L19.8969 5.85588L20.5276 6.06102L20.8143 5.16586Z" fill="#419445"/>
<path d="M19.8012 5.33368C19.8777 5.09124 20.0497 4.9234 20.1835 4.96069C20.3173 4.99799 20.3555 5.24043 20.2791 5.48287C20.2026 5.72531 20.0306 5.89315 19.8968 5.85586C19.763 5.81856 19.7057 5.57612 19.8012 5.33368Z" fill="#419445"/>
<path d="M19.8204 5.35235C19.8777 5.1472 20.0306 5.01666 20.1453 5.05396C20.26 5.09126 20.2982 5.27775 20.2218 5.48289C20.1644 5.68803 20.0115 5.81857 19.8969 5.78128C19.8013 5.74398 19.7631 5.55749 19.8204 5.35235Z" fill="#58B75A"/>
<path d="M19.3616 5.37098C19.3616 5.37098 17.737 5.22178 16.896 5.61342C16.055 6.00505 16.5137 6.43398 17.2974 6.061C18.081 5.68801 19.3616 5.37098 19.3616 5.37098Z" fill="#419445"/>
<path d="M22.0948 4.81149L21.6169 4.94203C21.6169 4.94203 22.2668 5.14717 22.305 5.35231C22.3432 5.55745 22.1521 5.81854 22.3432 6.00503C22.5153 6.19153 22.6682 5.78124 22.6682 5.78124C22.6682 5.78124 22.7064 6.17288 22.8593 6.26612C23.0313 6.34072 23.1078 5.87449 23.1078 5.87449C23.1078 5.87449 23.2416 6.30342 23.5283 6.13558C23.7767 5.98639 23.5474 5.20312 23.2416 4.97933C22.7255 4.5504 22.0948 4.81149 22.0948 4.81149Z" fill="#F3BAA6"/>
<path d="M21.3685 6.80695C21.3685 6.80695 21.1964 6.73235 21.6169 6.45261C22.0374 6.17287 22.5344 6.07963 22.4006 6.45261C22.2668 6.82559 21.961 6.7883 21.961 6.7883C21.961 6.7883 22.5344 7.17993 22.0756 7.25453C21.636 7.32912 21.3685 6.80695 21.3685 6.80695Z" fill="#F3BAA6"/>
<path d="M17.0871 2.81603C17.0871 2.81603 17.8707 2.4244 17.3165 1.65978C16.7431 0.91381 15.8639 0 15.8639 0C15.8639 0 15.7874 0.540827 15.8256 0.727319C15.8639 0.91381 16.1314 1.26815 16.1314 1.26815C16.1314 1.26815 15.4434 1.00706 14.7935 1.00706C14.1437 1.00706 13.4747 1.51058 13.4747 1.51058L14.0481 1.65978C14.0481 1.65978 13.1689 2.07006 12.8822 2.33115C12.5955 2.59224 11.8501 3.13306 11.8501 3.13306C11.8501 3.13306 11.8883 3.35685 12.2706 3.50605C12.7102 3.67389 12.9013 3.54335 12.9013 3.54335L12.5955 4.30796C12.5955 4.30796 13.1498 4.30796 13.7041 3.89768C14.0481 3.63659 14.6788 3.63659 14.6788 3.63659C14.6788 3.63659 16.3417 3.4128 17.0871 2.81603Z" fill="#232323"/>
</svg>
