<svg width="23" height="38" viewBox="0 0 23 38" fill="none" xmlns="http://www.w3.org/2000/svg">
<path d="M13.7659 5.95679C13.8607 5.91945 14.676 6.34893 15.15 6.90913C15.6051 7.46932 15.8326 7.9735 15.9464 8.72043C16.5911 9.20593 16.7807 9.65409 17.122 10.0462C17.4633 10.4384 17.8046 10.9612 17.8046 10.9612C17.8046 10.9612 19.2457 9.84082 19.8145 9.35532C20.1937 9.0192 20.6867 8.57104 20.5919 8.02952C20.5729 7.88013 20.4023 7.05851 21.0091 6.9278C21.1039 6.29291 21.5021 6.05016 22.1467 6.29291C22.7914 6.55433 23.019 6.9278 23 7.488C22.981 7.95483 22.2984 8.2536 21.7296 8.94451C21.1987 9.33664 20.8953 10.6624 20.0231 11.7642C19.6628 12.231 19.056 12.6231 18.582 12.9219C18.3355 13.09 18.108 13.2767 17.4064 13.09C16.8755 12.9592 14.164 11.428 13.8607 10.6438C13.5573 9.82215 12.3817 6.6477 13.7659 5.95679Z" fill="#F3BAA6"/>
<path d="M10.8648 0.391961C10.1442 0.0371698 8.68423 -0.504353 8.07747 1.0642C7.47071 2.61407 6.76915 2.85683 6.14342 2.63275C5.5177 2.40867 5.55562 1.41899 5.55562 1.41899C5.55562 1.41899 4.60756 2.24061 5.40394 3.56641C5.1764 5.04159 7.43279 4.92955 7.94474 4.12661C9.40476 5.06027 9.21515 2.09122 9.99256 2.25928C10.732 2.42734 11.6611 2.70744 11.8887 1.88582C12.0973 1.0642 11.3009 0.597366 10.8648 0.391961Z" fill="#232323"/>
<path d="M6.10549 20.5592C5.19535 20.2044 4.17144 19.943 3.48884 19.5322C3.24234 19.7936 3.03377 20.0737 2.90104 20.3911C2.86312 20.5032 2.84416 20.5965 2.8252 20.7086C4.20937 21.5302 6.44679 23.6776 7.11044 24.4806C7.90681 25.4516 8.74111 25.5263 9.06345 25.1715C9.5754 24.5926 10.2011 23.7336 10.1822 23.6963C9.8219 22.0717 7.1294 20.97 6.10549 20.5592Z" fill="#F3BAA6"/>
<path d="M11.6612 12.6044C12.6092 12.7165 13.2729 12.9219 14.2209 12.4924C14.0503 13.258 13.9175 14.3597 14.1261 15.5548C13.9744 16.2831 13.6521 16.9553 12.249 17.1234C9.74607 17.4035 8.38086 16.1337 8.26709 15.5922C8.39982 15.2187 8.91177 14.5838 9.15827 14.0049C9.44269 13.37 9.27204 12.6605 9.44269 11.6895C10.1822 12.0816 10.9217 12.5297 11.6612 12.6044Z" fill="#F5C9B7"/>
<path d="M7.71724 18.3931C8.03958 17.2728 8.11543 16.5258 8.81699 15.5361C8.9118 15.4241 8.98764 15.3307 9.06349 15.256C9.76506 15.5548 10.5235 15.7415 11.263 15.7415C12.0214 15.7415 13.3677 16.1524 14.0693 15.5361C14.1641 16.6379 14.202 17.2354 13.7659 18.2624C13.1212 19.8123 10.6562 23.5096 10.0495 24.1258C9.72713 24.1258 7.50867 23.603 7.50867 21.3435C7.96374 20.1858 7.47074 19.3268 7.71724 18.3931Z" fill="#2361A5"/>
<path d="M14.202 26.3293C14.0882 23.3416 12.5903 20.2791 12.249 19.1961C12.7041 18.5239 13.1402 16.6752 13.0264 15.8909C12.3817 16.1524 10.8648 16.3764 10.1064 15.8723C9.67025 15.5922 9.08246 15.1814 8.817 14.6585C7.52763 16.1524 6.27619 18.4865 7.66036 20.2791C7.48971 21.3062 8.53258 22.9121 8.85492 23.4723C9.84091 25.1529 11.2061 26.1052 12.1731 27.1135C12.4576 27.1509 13.9365 26.6654 14.202 26.3293Z" fill="#3A80CC"/>
<path d="M8.94973 15.368C9.08246 15.5734 9.21519 15.7602 9.34792 15.9096C9.36688 15.9282 9.38584 15.9656 9.4048 15.9843C9.00661 16.4884 8.43778 17.5155 8.66531 18.9906C8.98765 21.1941 11.9835 24.8167 11.9835 24.8167L11.5664 25.2835C11.5664 25.2835 8.87389 21.7356 8.28609 19.7376C7.77413 17.9076 8.30505 16.5818 8.87389 15.4988C8.89285 15.4427 8.93077 15.4054 8.94973 15.368Z" fill="#232323"/>
<path d="M14.0124 14.8825L14.1072 15.5548C14.1072 15.5548 13.5574 16.171 11.9457 16.3017C10.0116 16.4511 8.22925 15.1813 8.22925 15.1813L8.62743 14.4157C8.62743 14.4157 9.89784 15.2187 11.282 15.368C12.6662 15.5174 14.0124 14.8825 14.0124 14.8825Z" fill="#3171C2"/>
<path d="M14.1451 12.7911C13.1402 13.2019 12.3059 13.482 11.263 13.314C10.4667 13.1833 10.0116 13.1086 9.34795 12.7164C9.34795 12.5671 9.29107 11.1479 9.27211 10.9798C9.15834 9.80342 8.60846 9.91546 8.76015 9.07517C9.00665 7.67468 10.2771 7.11448 10.9217 6.81571C13.5194 5.58328 13.747 5.8447 13.6522 5.93807C13.8038 6.08745 14.0314 6.47959 14.7329 7.7307C15.0742 8.34691 15.7379 9.44863 15.8137 9.78475C16.0223 10.6997 15.2828 11.2226 14.9984 11.5961C14.8467 11.7828 14.3158 12.0816 14.1451 12.7911Z" fill="#3171C2"/>
<path d="M13.7848 6.68503C13.8038 6.74105 14.0124 7.17053 14.2968 7.76807C14.5812 8.36562 14.9035 8.86979 14.4295 9.3553C13.9744 9.85947 13.0453 9.72876 12.5334 9.20591C12.0214 8.68306 10.7321 6.87176 10.7321 6.87176L11.5095 6.51697L13.7848 6.68503Z" fill="#232323"/>
<path d="M11.5285 5.24719C12.268 5.39658 13.1023 5.62066 13.7469 5.56464C13.6142 6.10616 13.4246 6.27422 13.7469 7.28257C13.9745 7.97348 14.6381 8.83245 14.0503 9.14989C13.7659 9.29928 13.216 9.44867 12.5903 8.70174C12.0404 8.06685 11.2251 7.11451 11.0544 6.75972C11.3768 6.38626 11.3768 5.71402 11.5285 5.24719Z" fill="#F3BAA6"/>
<path d="M14.6759 3.00641C13.6899 2.78234 13.178 2.74499 12.3247 3.09978C11.8317 3.23049 11.3767 3.4359 10.9406 3.73467C10.9026 3.75334 10.8837 3.80936 10.8837 3.84671C11.1112 5.11649 11.5473 6.46096 12.9884 7.02116C14.1829 7.48799 14.8466 6.19953 15.0551 5.34057C15.2637 4.33221 15.3396 3.1558 14.6759 3.00641Z" fill="#F5C9B7"/>
<path d="M11.5284 1.71796C12.4575 0.971028 13.6331 1.06439 14.2778 1.58724C15.1879 1.62459 15.643 2.16611 15.1879 3.0811C14.6001 3.80936 13.1212 4.35088 12.2679 4.23884C12.0972 4.76169 11.8128 5.97545 11.3198 5.9381C10.3528 3.94007 10.0305 2.91304 11.5284 1.71796Z" fill="#333333"/>
<path d="M12.4575 4.81771C12.4575 4.81771 12.23 4.03343 11.6991 4.44424C11.1871 4.83638 11.9077 5.63933 11.9077 5.63933L12.4575 4.81771Z" fill="#F5C9B7"/>
<path d="M6.12446 12.8659C5.80212 13.2767 6.04861 13.9676 6.29511 14.4531C6.52264 14.9386 7.45174 15.8722 8.68423 17.2354C9.57541 18.2251 10.5614 19.1401 11.0165 18.5985C11.6801 17.8143 12.0404 17.0487 11.2819 16.7686C11.3578 16.059 9.84086 16.6192 9.84086 16.6192C9.84086 16.6192 9.25306 15.4988 8.85488 14.7519C8.45669 14.0049 8.05851 13.3327 8.05851 13.3327C8.05851 13.3327 9.55644 12.3057 9.70813 11.6708C11.0354 12.1189 11.4526 10.6998 11.0923 9.2806C10.8648 8.36561 10.3907 7.41328 10.0115 7.28256C9.49956 7.1145 8.34292 8.38428 8.21019 9.31794C6.95875 10.7184 6.4468 12.455 6.12446 12.8659Z" fill="#F5C9B7"/>
<path d="M14.3537 12.287C14.3537 12.287 13.235 12.9966 11.4337 12.7912C9.80301 12.6231 9.32898 12.2683 9.32898 12.2683L9.34794 12.7912C9.34794 12.7912 10.2581 13.4821 11.8508 13.4634C13.3677 13.4634 14.1072 13.0152 14.1072 13.0152L14.3537 12.287Z" fill="#232323"/>
<path d="M14.6002 11.7081C14.6002 11.7081 13.9366 11.5214 13.5952 11.7455C13.1781 12.0069 12.6472 12.287 12.2869 12.287C11.5474 12.2497 10.9976 11.6521 10.9976 11.6521C10.9976 11.6521 11.1682 12.3804 12.1732 12.5298C12.4386 12.5671 13.1212 12.4924 13.4246 12.287C13.8228 12.0069 14.6002 11.7081 14.6002 11.7081Z" fill="#3171C2"/>
<path d="M13.1781 14.4344C13.4056 14.4904 13.216 15.0506 13.0453 14.8825C12.8557 14.6958 12.9316 14.3784 13.1781 14.4344Z" fill="#F3BAA6"/>
<path d="M15.3397 2.68898C15.3397 2.65163 15.5482 2.72632 15.5482 3.06244C15.5482 3.52927 15.3776 3.82804 15.2069 4.14549C15.169 4.22018 14.3726 4.70568 12.7989 4.85507C11.9835 4.92976 10.8079 4.81772 10.8079 4.81772C10.8079 4.81772 10.4477 4.25753 10.3908 4.03345C10.3339 3.80937 10.5235 3.67866 10.5235 3.67866C10.5235 3.67866 10.5235 3.7907 11.244 3.82804C11.9646 3.86539 13.5952 3.60396 14.1261 3.43591C14.4295 3.34254 14.9225 3.30519 15.169 3.11846C15.3017 2.83836 15.3397 2.68898 15.3397 2.68898Z" fill="#3171C2"/>
<path d="M10.9786 25.9931C10.9786 25.9931 11.4337 26.4413 11.6802 27.3002C11.8129 27.7484 12.0974 29.3916 12.268 30.6988C12.4387 32.0059 13.6522 34.7882 13.6522 34.7882H14.9984C14.9984 34.7882 14.6761 31.4457 14.5813 29.4663C14.5434 28.57 14.6002 27.1695 14.3917 26.2172C14.1452 25.0595 13.8797 24.1445 13.8797 24.1445C13.8797 24.1445 11.6044 24.4432 10.9786 25.9931Z" fill="#F5C9B7"/>
<path d="M13.2729 33.8919C13.2729 33.8919 13.3488 34.6201 13.2729 35.1803C13.1781 35.8339 12.9885 36.2821 13.709 36.5435C13.9745 36.6368 14.3916 36.8609 15.0174 37.1784C15.5672 37.4771 16.3257 37.9066 16.9324 37.7946C17.5961 37.6825 18.0132 37.5145 17.8995 37.085C17.7857 36.5995 17.0652 36.0393 16.4584 35.5911C15.4155 34.8255 14.9226 33.7612 14.9226 33.7612L13.8607 34.4894L13.2729 33.8919Z" fill="#3171C2"/>
<path d="M13.1781 35.4978C13.1781 35.4978 13.4815 35.9086 13.7659 36.0767C14.3347 36.4315 14.4485 36.6182 14.9984 37.0477C15.6051 37.5145 16.4015 37.5519 17.0272 37.3278C17.3117 37.2157 17.8805 37.0664 17.8805 37.0664C17.8805 37.0664 18.1459 37.7386 16.9135 37.9813C15.6999 38.2054 14.0882 36.7489 14.0882 36.7489C14.0882 36.7489 12.8178 36.8236 13.1781 35.4978Z" fill="#333333"/>
<path d="M14.202 34.228C14.202 34.228 14.3158 34.8816 15.0173 35.4978C15.7189 36.114 15.9844 36.3194 16.3067 36.2821C16.629 36.2447 16.9324 35.9646 16.9324 35.9646C16.9324 35.9646 15.8137 35.1243 15.4534 34.5828C15.0742 34.0413 15.188 33.1637 14.676 33.3691C14.183 33.5745 14.202 34.228 14.202 34.228Z" fill="#232323"/>
<path d="M4.07666 19.831C4.07666 19.831 3.67847 19.2894 3.24237 18.9346C2.93899 18.6732 1.91508 20.0924 1.74443 20.3351C1.57378 20.5779 0.492984 21.0074 0.322333 21.8103C0.151681 22.5946 0.549868 22.744 0.834287 22.8374C1.13767 22.9307 3.45094 21.1568 3.45094 21.1568C3.45094 21.1568 3.16652 20.7086 3.07171 20.3351C3.48886 20.1484 4.07666 19.831 4.07666 19.831Z" fill="#3171C2"/>
<path d="M3.56474 19.2334C3.56474 19.2334 2.46499 19.3454 1.89615 20.2231C0.39821 21.3621 0.284443 21.7543 0.436133 22.2958C0.587823 22.8373 0.834319 22.8 0.834319 22.8C0.834319 22.8 0.39821 22.9307 0.132753 22.4265C-0.151666 21.941 0.0569078 21.5115 0.474055 21.0447C0.891203 20.5779 1.74446 19.9803 1.74446 19.9803C1.74446 19.9803 2.4081 18.9533 2.93902 18.8786C3.41305 18.8226 3.56474 19.2334 3.56474 19.2334Z" fill="#333333"/>
<path d="M1.38414 22.5946C1.38414 22.5946 1.17556 22.1838 1.7444 21.717C2.31324 21.2501 2.80623 20.4659 3.48883 20.7646C4.17144 21.0634 4.36105 21.5489 3.92494 21.4929C3.46987 21.4182 3.16649 21.3809 3.16649 21.3809L1.38414 22.5946Z" fill="#333333"/>
</svg>
