<svg width="25" height="37" viewBox="0 0 25 37" fill="none" xmlns="http://www.w3.org/2000/svg">
<path d="M1.25539 25.1635C2.60674 24.6606 6.42914 23.6935 7.72257 23.8096C8.24381 23.4227 10.0778 21.1598 10.1164 20.9857C11.043 22.0302 12.1048 22.359 13.2824 22.6104C12.7419 23.1713 10.1936 25.705 9.63377 26.2272C8.9774 26.6141 8.37894 27.1943 7.433 26.9235C5.00057 26.2272 2.89632 26.1499 1.2747 26.2659C0.695546 25.589 0.174311 26.5754 1.25539 25.1635Z" fill="#F5C9B7"/>
<path d="M18.6106 23.6161C18.8036 23.5001 19.3635 23.2873 19.3442 23.0359C19.3248 22.7845 17.5681 21.9334 16.5642 23.0359C15.5604 24.1383 14.209 24.9894 14.3248 25.2408C14.4407 25.4922 14.8075 25.6083 15.7534 25.2408C16.6994 24.8733 18.3403 23.7902 18.6106 23.6161Z" fill="#232323"/>
<path d="M3.3017 26.498C3.6685 26.0145 3.3017 25.5309 2.85769 25.1635C3.24379 24.97 3.26309 24.6412 3.32101 24.4672C2.72255 24.4478 1.77661 24.3898 1.21676 24.5445C0.734136 24.6799 0.40595 26.1499 0.309425 26.7301C0.0777651 28.2194 0.0970701 29.3025 1.3712 29.728C1.77661 29.8634 2.20132 29.5733 2.35576 28.9737C2.60672 28.0647 2.97352 27.349 3.3017 26.498Z" fill="#DA2E4A"/>
<path d="M1.54493 24.4671C1.54493 24.4671 1.29397 25.1248 0.965783 25.821C0.637597 26.5173 0.174277 27.4651 0.328717 28.1807C0.463852 28.9157 1.08161 28.9737 1.50632 29.0897C1.93103 29.2058 1.91173 29.6506 1.91173 29.6506C1.91173 29.6506 1.58354 30.0181 0.792037 29.5346C0.000531737 29.051 -0.0573833 28.2 0.0198368 27.4264C0.0970569 26.6334 0.463852 25.4922 0.579682 25.028C0.637597 24.7959 0.849952 24.5639 1.08161 24.5058C1.31327 24.4478 1.54493 24.4671 1.54493 24.4671Z" fill="#333333"/>
<path d="M2.70319 25.6083C2.70319 25.6083 2.25918 26.382 2.10474 26.8268C1.9503 27.2717 1.93099 28.0067 2.3364 28.1421C2.62597 28.2388 3.14721 27.0589 3.37887 26.382C3.61053 25.7244 2.70319 25.6083 2.70319 25.6083Z" fill="#333333"/>
<path d="M1.83454 26.3239C1.83454 26.3239 2.29786 26.4206 2.58744 26.6334C2.87702 26.8461 3.10868 27.0395 3.10868 27.0395L3.01215 27.3103C3.01215 27.3103 2.72258 27.0009 2.4523 26.8074C2.16273 26.614 1.75732 26.5173 1.75732 26.5173L1.83454 26.3239Z" fill="white"/>
<path d="M1.64145 26.9042C1.64145 26.9042 2.10477 27.0009 2.39434 27.2136C2.68392 27.4264 2.83836 27.6005 2.83836 27.6005L2.74183 27.8326C2.74183 27.8326 2.52948 27.6005 2.2399 27.407C1.95033 27.2136 1.54492 27.1169 1.54492 27.1169L1.64145 26.9042Z" fill="white"/>
<path d="M2.85761 26.2466C2.85761 26.2466 2.58734 25.763 2.70317 25.6083C2.7997 25.4342 4.01591 25.6857 4.11244 26.0725C4.20897 26.44 3.64912 26.4013 3.30163 26.5174C2.95414 26.6141 2.85761 26.2466 2.85761 26.2466Z" fill="#333333"/>
<path d="M17.3171 20.2894C17.3171 20.2894 18.3596 22.0108 18.9001 23.6355C19.1511 24.3705 19.1318 24.5832 19.1511 25.7243C19.1511 26.8655 19.209 27.233 19.4021 29.2832C19.5951 31.314 19.9426 34.0411 19.9426 34.0411L18.514 34.9695C18.514 34.9695 16.7766 30.9852 16.2939 29.5733C15.8113 28.1614 15.9465 25.589 15.9465 25.589L14.1897 21.8948L17.3171 20.2894Z" fill="#F5C9B7"/>
<path d="M17.7804 34.0992C17.7804 34.0992 17.9928 34.9695 18.0314 35.5498C18.07 36.13 18.263 36.6329 18.8229 36.7489C19.402 36.8456 19.8846 36.7683 20.8113 36.5942C22.3943 36.3234 23.263 36.0527 23.3982 35.4724C23.514 34.9115 23.2244 34.4667 22.2012 34.3893C21.9117 34.37 21.1588 34.3313 20.8499 34.1379C20.5796 33.9638 20.3866 33.7897 20.3094 33.635C20.1549 33.3255 19.7302 33.2482 19.1897 33.6543C18.8036 33.9444 18.707 34.1572 18.6684 34.37C18.2244 34.1765 17.9734 34.0798 17.7804 34.0992Z" fill="#DA2E4A"/>
<path d="M19.46 33.9444C19.46 33.9444 19.5179 34.3312 20.0777 34.602C20.6569 34.8535 21.1202 34.7954 21.4484 34.6987C21.8152 34.5827 22.1434 34.4086 22.1434 34.4086C22.1434 34.4086 21.3325 34.4086 20.9271 34.1959C20.5217 34.0024 20.3094 33.6543 20.3094 33.6543L19.46 33.9444Z" fill="#333333"/>
<path d="M22.8383 34.8922C22.3556 34.8342 21.7186 35.3177 21.4676 35.4918C20.6761 36.0333 20.3672 36.0333 19.5564 36.13C18.7456 36.2267 18.0892 35.8786 18.0892 35.8786C18.0892 35.8786 18.1278 36.5169 18.2823 36.7103C18.4367 36.8844 19.1703 37.0197 19.7688 36.9811C20.3672 36.9617 21.9309 36.6329 22.6645 36.3041C23.3981 35.9753 23.9194 35.0276 22.8383 34.8922Z" fill="#333333"/>
<path d="M23.4174 35.4918C23.4174 35.4918 23.0893 35.1823 22.3364 35.4918C21.5835 35.8012 21.2553 36.3815 20.3286 36.6329C19.402 36.8844 18.4561 36.807 18.4561 36.807C18.4561 36.807 18.6298 36.9617 19.0931 36.9811C19.6723 37.0198 20.6182 36.923 21.429 36.7103C22.8962 36.3235 23.3209 35.956 23.4174 35.4918Z" fill="#232323"/>
<path d="M19.8267 34.6408L20.8498 34.1572L20.5796 33.9638C20.5796 33.9638 19.8653 34.2733 19.5564 34.4087C19.5757 34.4667 19.6915 34.5634 19.8267 34.6408Z" fill="white"/>
<path d="M21.0236 34.2346L20.1549 34.7761C20.1549 34.7761 20.3866 34.8728 20.5217 34.8535C20.6954 34.7568 21.3132 34.2926 21.3132 34.2926L21.0236 34.2346Z" fill="white"/>
<path d="M24.9619 8.89739C24.6916 8.2011 24.4793 7.79493 24.0353 7.56283C23.5526 7.33074 23.2244 7.62086 22.9542 8.04637C21.9696 8.27846 22.2592 9.20685 22.5874 9.51631C21.9503 10.406 21.2167 10.6961 20.8113 11.4311C20.6376 10.9863 20.0584 9.67104 19.4407 8.83936C19.3827 8.762 17.6067 9.69038 17.9156 10.5414C18.1665 11.199 18.3596 11.5278 18.6878 12.1854C19.0739 12.9397 19.6337 13.3846 20.0584 13.636C20.541 13.9068 21.043 13.9068 21.9696 13.0558C22.7997 12.2821 23.1279 11.141 23.5912 10.464C23.8808 10.0192 25.2515 9.61302 24.9619 8.89739Z" fill="#F5C9B7"/>
<path d="M12.4909 17.3882C13.0121 17.2141 15.8693 15.3187 16.8345 15.0479C17.1627 16.0537 17.9156 18.6261 18.4561 20.6182C18.6106 21.1791 19.3442 21.7013 19.3442 23.0165C18.4561 22.7651 17.4523 23.0746 16.9117 23.4421C16.2747 23.8869 15.2708 24.796 14.3248 25.2215C13.765 23.9836 12.4716 20.7923 12.2978 19.9026C12.1048 19.1289 11.5256 17.7364 12.4909 17.3882Z" fill="#BC2A4D"/>
<path d="M7.31714 23.2099C8.35961 21.6046 8.37891 21.5853 9.05459 19.1676C8.91946 16.5372 9.73027 16.2664 10.792 14.3129H13.3789C13.3982 14.3129 15.6569 16.2664 15.7341 17.2915C15.792 18.2005 15.9851 20.5795 14.5758 21.005C14.3056 22.4363 12.1241 24.7186 11.5063 26.0725C10.0585 26.3626 8.41752 24.4091 7.31714 23.2099Z" fill="#E83658"/>
<path d="M17.0468 5.00979C16.7765 5.33859 16.7572 5.33859 16.4677 5.64805C16.4677 6.36368 16.5449 7.05997 16.7379 7.7756C17.0275 8.85872 16.8151 11.1217 17.5294 11.0249C18.4368 10.8896 19.4599 9.98052 20.097 9.24554C19.7495 8.39452 19.3634 7.96902 18.7456 6.94392C18.7456 5.80278 17.7032 4.93242 17.0468 5.00979Z" fill="#333333"/>
<path d="M17.3171 5.66734C16.0429 4.1974 15.3287 5.12579 13.6105 6.1122C12.4715 6.92453 11.3711 7.27268 11.236 9.28418C11.1588 10.464 10.7727 10.7735 10.7341 11.8953C10.6761 13.0944 9.69159 15.9763 9.22827 17.1754C9.49854 18.7034 15.541 20.4635 17.8962 18.2392C18.1279 17.4656 17.5873 16.3051 17.3364 15.6862C17.7032 14.6224 17.568 13.2105 18.2437 11.5665C19.3441 8.60723 18.4947 7.04058 17.3171 5.66734Z" fill="#DA2E4A"/>
<path d="M12.5488 16.2278C12.5488 16.2278 14.1318 16.75 14.9427 16.6726C15.7535 16.5952 16.294 15.9957 16.294 15.9957C16.294 15.9957 15.4253 16.2664 14.7689 16.2471C14.1125 16.1891 12.5488 16.2278 12.5488 16.2278Z" fill="#DA2E4A"/>
<path d="M13.6106 6.11221C13.6106 6.11221 14.6531 7.07928 15.1164 7.73688C15.5797 8.41383 16.2554 9.36155 17.2592 8.95539C18.2631 8.54922 17.8384 7.85293 17.4909 6.92455C17.1434 5.99616 16.3712 5.14514 16.3712 5.14514C16.3712 5.14514 14.6531 5.39658 13.6106 6.11221Z" fill="#333333"/>
<path d="M14.9813 4.23609C14.9813 4.23609 16.5064 4.04268 16.989 4.79699C16.6994 5.5513 16.7187 6.24759 17.2786 7.25334C17.684 7.98831 17.4523 8.39448 17.0662 8.54921C16.6608 8.70394 15.9079 8.20107 15.5797 7.75622C14.9041 6.82783 14.4793 6.38298 13.9774 5.89945C14.2863 5.51262 14.9813 4.23609 14.9813 4.23609Z" fill="#F3BAA6"/>
<path d="M18.3596 3.30775C18.3403 2.66949 18.2052 1.8765 17.7033 1.43164C17.2207 0.986793 16.3905 0.94811 15.7728 0.986793C14.8075 1.06416 14.1318 2.12793 14.2863 3.36578C14.4407 4.50692 15.2129 6.26698 16.4871 6.51842C17.1434 6.63447 17.6454 6.15093 17.9349 5.53201C18.3017 4.7777 18.379 3.82997 18.3596 3.30775Z" fill="#F5C9B7"/>
<path d="M14.6723 0.812817C13.9966 0.832158 13.3402 1.58647 13.6298 3.23049C13.7456 3.86875 13.9966 4.58438 14.3055 5.33869C14.3441 5.4354 15.3673 4.15887 15.5024 2.863C16.5835 3.24983 18.07 2.57288 19.1124 2.14737C18.7263 0.387307 15.985 -0.927905 14.6723 0.812817Z" fill="#232323"/>
<path d="M15.3866 4.21675C15.3866 4.21675 15.1356 3.55915 14.7302 3.82993C14.3248 4.12005 14.8654 5.02909 14.8654 5.02909L15.3866 4.21675Z" fill="#F5C9B7"/>
<path d="M12.5487 16.4792C12.2785 16.4211 11.9503 16.6339 11.6607 16.6919C11.2553 15.4541 10.6182 13.6553 10.4059 13.4813C10.5796 13.2492 11.4484 12.1854 11.8345 11.5858C11.6221 11.4504 10.4831 9.94179 10.2901 9.45825C9.59508 10.4833 8.95801 11.1603 8.49469 11.9533C8.10859 12.6302 7.83832 13.2492 8.20512 14.0422C8.64913 15.0286 9.65299 16.4405 10.4445 17.3302C10.4445 17.3302 10.5217 18.2005 11.1588 18.8195C11.7186 19.361 12.9735 19.0516 13.3016 18.3553C13.5912 17.7363 13.1472 17.5623 12.9348 17.2722C12.9928 16.6726 12.7611 16.5178 12.5487 16.4792Z" fill="#F5C9B7"/>
<path d="M11.2168 13.0364C11.6608 12.7076 12.0855 12.2821 12.3365 11.9533C12.9349 11.1603 13.6878 10.1352 13.6106 9.01344C13.5527 8.2011 13.1859 7.27272 12.4137 6.96326C11.1975 7.21469 10.5411 7.3114 10.0199 8.9941C9.53724 9.36158 8.82295 10.5607 8.6106 11.0443C8.6106 11.4504 9.67237 13.0364 11.2168 13.0364Z" fill="#333333"/>
<path d="M20.2322 33.8477L20.3674 33.7317C20.3674 33.7317 20.3674 33.2095 20.3674 33.0354C20.3674 32.8613 19.7303 32.7259 19.46 33.1515C19.1898 33.577 19.4793 34.0025 19.4793 34.0025L20.2322 33.8477Z" fill="#333333"/>
<path d="M13.6299 3.23037C13.6299 3.23037 14.9813 3.53983 16.4677 3.46246C17.9542 3.3851 18.3596 3.30773 18.3596 3.30773L18.2824 2.14725C18.2824 2.14725 15.8307 2.2633 14.9813 2.14725C14.1511 2.0312 13.6299 1.89581 13.6299 1.89581C13.6299 1.89581 13.2824 2.68881 13.6299 3.23037Z" fill="#DA2E4A"/>
</svg>
