<svg width="18" height="37" viewBox="0 0 18 37" fill="none" xmlns="http://www.w3.org/2000/svg">
<path d="M13.1362 5.79822C13.1362 5.79822 14.4996 6.08813 15.0155 7.24778C15.5129 8.40742 15.6603 8.51614 15.6603 8.51614C15.6603 8.51614 16.5446 9.83886 16.9684 10.6542C17.3921 11.4877 17.6869 11.5965 17.9817 12.14C18.0738 12.3212 17.8711 12.5387 17.7422 12.8105C17.5027 13.3359 17.1342 13.952 16.8394 14.1875C15.8998 14.9848 15.6419 15.2022 15.6419 15.2022C15.6419 15.2022 15.8261 16.0901 15.5313 16.4887C15.1813 16.9598 14.7207 17.1773 14.2969 16.7786C14.0021 16.833 14.0021 16.688 13.8732 16.4887C13.431 16.3438 13.9837 15.6009 13.9837 15.6009C13.9837 15.6009 13.3942 15.3834 13.7442 15.0573C14.1127 14.7311 14.2232 14.5499 14.7759 14.4231C15.0155 14.1332 15.0339 13.952 15.3102 13.4084C15.6234 12.7923 16.084 12.6111 16.084 12.6111C16.084 12.6111 14.518 11.5965 13.9653 10.5274C13.431 9.45835 13.1362 5.79822 13.1362 5.79822Z" fill="#F3BAA6"/>
<path d="M10.1146 18.7537C10.1146 18.7537 8.82498 20.0764 8.58547 20.3119C8.34596 20.5294 7.49847 20.8736 6.22723 21.2904C4.95599 21.7071 2.15558 24.4069 1.40021 24.9324C0.644832 25.4579 2.13716 25.9833 2.13716 25.9833C2.13716 25.9833 5.96929 24.4069 7.55374 23.8996C9.13818 23.3923 10.8332 22.9936 12.1228 21.689C13.4309 20.3663 10.1146 18.7537 10.1146 18.7537Z" fill="#F3BAA6"/>
<path d="M13.1731 15.3472L9.30407 15.6734C9.30407 15.6734 8.91717 18.5181 8.12495 19.3698C7.44327 19.6778 6.89056 20.2033 6.50366 20.7106C6.72475 21.4716 7.16692 22.5044 7.86702 23.048C8.30919 23.3923 9.10141 23.4104 9.58043 23.6097C10.3358 23.0299 12.2519 21.4897 12.9335 20.0945C13.9653 17.9927 13.1731 15.3472 13.1731 15.3472Z" fill="#D88D2A"/>
<path d="M8.69602 23.8271C8.9171 24.5882 13.9836 23.8996 13.1914 22.5407C12.3808 21.1636 8.30912 22.4863 8.69602 23.8271Z" fill="#232323"/>
<path d="M9.08301 21.9608C9.08301 21.9608 9.83838 23.8271 9.98577 24.1352C10.1332 24.4432 10.1884 25.4579 10.1516 26.8712C10.1332 28.2845 11.5702 32.307 11.8466 33.2311C12.1229 34.1734 13.9653 33.7204 13.9653 33.7204C13.9653 33.7204 13.0073 28.3026 13.0441 26.5269C13.081 24.7512 13.2652 22.9212 12.3809 21.1636C11.4781 19.4241 9.08301 21.9608 9.08301 21.9608Z" fill="#F5C9B7"/>
<path d="M7.01953 16.2532C7.01953 16.2532 6.63263 17.7933 6.6879 18.9892C6.74317 20.1851 8.67766 23.8271 8.67766 23.8271C8.67766 23.8271 9.37777 23.6278 10.5937 23.048C12.3256 22.2145 13.1731 22.5406 13.1731 22.5406L11.9387 16.8874L7.01953 16.2532Z" fill="#FCB454"/>
<path d="M13.1362 5.79826C11.9202 4.42118 11.2385 5.29091 9.59883 6.21501C9.10139 6.43244 8.41971 6.81295 8.08808 7.06662C7.4801 7.51961 7.42482 7.9726 7.33271 9.20472C7.29586 9.78455 7.49852 11.7052 7.49852 13.7708C7.49852 15.3472 6.90896 16.5431 6.7063 17.0505C6.96423 18.4819 11.2385 20.0764 13.5047 17.9927C13.7257 17.2679 13.3573 14.2782 13.431 13.7527C13.5231 13.0279 13.6336 12.2126 14.0205 11.3247C15.0707 8.55242 14.26 7.08474 13.1362 5.79826Z" fill="#F1A73B"/>
<path d="M10.3726 4.23999C10.3726 4.23999 12.3624 4.27623 12.823 4.98289C12.5466 5.68955 12.7677 6.21501 13.302 7.15723C13.6889 7.84577 13.2467 8.69739 12.8967 8.86046C12.0492 9.24097 11.4965 8.91482 11.0543 8.22628C10.3726 7.15723 9.93048 6.668 9.28564 6.41433C9.6357 6.30561 9.98575 5.97946 10.2437 5.65331C10.7227 5.09161 10.3726 4.23999 10.3726 4.23999Z" fill="#F3BAA6"/>
<path d="M14.2784 3.42457C14.26 2.82663 14.131 2.08373 13.652 1.66698C13.1914 1.25023 12.3992 1.21399 11.8096 1.25023C10.8884 1.32271 10.2436 2.31928 10.391 3.47893C10.5384 4.54798 11.2753 6.19685 12.4913 6.4324C13.1177 6.54112 13.5967 6.08813 13.8731 5.50831C14.2231 4.80165 14.2968 3.91379 14.2784 3.42457Z" fill="#F5C9B7"/>
<path d="M14.2047 2.33741C14.2047 2.33741 14.3705 1.14153 13.7257 0.688541C13.0624 0.217434 12.1597 0 12.1597 0C12.1597 0 12.4913 0.34427 12.6203 0.634182C12.1965 0.579824 11.957 0.434868 11.0542 0.833497C10.5384 1.06905 9.98567 0.670421 9.98567 0.670421C9.98567 0.670421 10.0225 0.942214 10.1331 1.03281C10.3726 1.23213 10.52 1.3046 10.52 1.3046C10.52 1.3046 9.89355 1.63075 9.76458 2.10186C9.63561 2.57297 9.98567 3.5333 9.76458 4.02253C9.5435 4.51175 8.86182 4.74731 8.86182 4.74731C8.86182 4.74731 8.95394 4.89226 9.37768 4.81978C9.69089 4.74731 9.93039 4.58423 9.93039 4.58423C9.93039 4.58423 9.89355 4.98286 9.61719 5.25465C9.37768 5.47209 9.00921 5.70764 9.00921 5.70764C9.00921 5.70764 10.1146 5.6714 10.4278 5.36337C10.741 5.05534 11.4411 3.22527 11.4411 3.22527L14.2047 2.33741Z" fill="#232323"/>
<path d="M11.4412 4.2762C11.4412 4.2762 11.2017 3.66013 10.8148 3.91381C10.4279 4.16748 10.9438 5.0191 10.9438 5.0191L11.4412 4.2762Z" fill="#F5C9B7"/>
<path d="M9.76458 3.35211C9.76458 3.35211 11.0542 3.64202 12.4729 3.56955C13.8915 3.49707 14.2784 3.42459 14.2784 3.42459L14.2047 2.33742C14.2047 2.33742 11.8649 2.44614 11.0542 2.33742C10.262 2.2287 9.76458 2.10187 9.76458 2.10187C9.76458 2.10187 9.43295 2.82665 9.76458 3.35211Z" fill="#F1A73B"/>
<path d="M9.37769 6.30557C9.37769 6.30557 10.0594 7.06659 10.8516 8.0088C11.4227 8.69734 12.0123 9.69391 12.9887 9.04161C13.9836 8.38931 13.2835 6.23309 13.2835 6.23309L12.8782 6.39617C12.8782 6.39617 13.2467 7.70077 13.0993 8.17188C12.9519 8.64298 12.3071 9.22281 11.4043 7.93632C10.5015 6.7042 9.81986 6.08813 9.81986 6.08813L9.37769 6.30557Z" fill="#232323"/>
<path d="M12.5466 2.10187C12.5466 2.10187 11.9939 2.64545 11.4412 2.86289C10.8885 3.0622 10.4647 2.98972 10.4647 2.98972C10.4647 2.98972 10.9437 2.73605 11.1832 2.55485C11.4228 2.37366 11.5517 2.10187 11.5517 2.10187H12.5466Z" fill="#232323"/>
<path d="M9.08301 16.8692C9.08301 16.8692 10.4095 17.3947 11.4412 17.2679C12.473 17.1229 13.1731 16.5068 13.1731 16.5068C13.1731 16.5068 12.1966 16.7967 11.2939 16.8692C10.4095 16.9417 9.08301 16.8692 9.08301 16.8692Z" fill="#F1A73B"/>
<path d="M8.65918 13.3359C8.65918 13.3359 9.35928 14.7855 10.6858 15.3653C12.0123 15.927 12.8598 15.8364 12.8598 15.8364C12.8598 15.8364 11.6991 15.4197 10.4647 14.713C9.24874 13.9701 8.65918 13.3359 8.65918 13.3359Z" fill="#F1A73B"/>
<path d="M13.8916 33.1043C13.8916 33.1043 15.1259 34.572 15.5497 35.025C15.9734 35.478 16.3972 35.8585 16.2498 36.2934C16.0287 36.9457 14.8864 37.1087 14.2969 36.837C13.7073 36.5833 13.1362 36.0216 12.5282 35.3512C12.3071 35.2243 11.8281 35.1518 11.5702 34.7895C11.3122 34.4452 11.3491 33.9378 11.5149 33.5754C11.8281 32.8507 11.6623 32.6151 11.6623 32.6151C11.6623 32.6151 12.0123 33.0319 12.3992 33.2131C12.6387 32.9413 13.3757 32.7238 13.8916 33.1043Z" fill="#F1A73B"/>
<path d="M16.2682 35.9129C16.2682 35.9129 15.7708 35.8041 14.9417 36.2934C14.1311 36.7826 13.0257 35.4418 13.0257 35.4418C13.0257 35.4418 12.5282 35.025 12.0492 34.9163C11.5518 34.8076 11.4965 33.5936 11.4965 33.5936C11.4965 33.5936 10.8148 34.2096 11.3675 34.8257C11.9202 35.4236 12.1229 35.2606 12.3993 35.4055C12.952 35.6954 13.2099 36.6558 14.4811 36.9276C15.7524 37.1993 16.4341 36.7101 16.2682 35.9129Z" fill="#232323"/>
<path d="M14.4811 33.7929C14.4811 33.7929 13.5415 33.956 13.302 34.3002C13.0625 34.6445 12.694 34.2277 13.0809 33.8654C13.4678 33.503 14.1679 33.4486 14.1679 33.4486L14.4811 33.7929Z" fill="#232323"/>
<path d="M15.0154 34.4089C15.0154 34.4089 14.0758 34.6264 13.8363 34.9525C13.5968 35.2968 13.2283 34.88 13.6152 34.5176C14.0021 34.1553 14.739 34.1009 14.739 34.1009L15.0154 34.4089Z" fill="#232323"/>
<path d="M11.6807 32.7238C11.6807 32.7238 11.5149 32.7238 11.3859 32.4882C11.2385 32.2527 11.4227 32.0352 11.4227 32.0352C11.4227 32.0352 11.9202 32.3614 12.4545 32.3614C13.2835 32.3614 13.6704 31.9265 13.6704 31.9265C13.6704 31.9265 13.9284 31.999 13.9652 32.1802C14.0021 32.3614 13.8915 33.0862 13.8915 33.0862C13.8915 33.0862 13.1914 32.8868 12.3255 33.5029C11.8281 32.9774 11.6807 32.7238 11.6807 32.7238Z" fill="#F1F1F1"/>
<path d="M1.93455 24.4251C1.65819 24.6063 1.38184 24.5701 0.60804 24.715C-0.110487 24.8419 0.221141 25.8384 0.423802 26.4364C0.626463 27.0343 0.90282 27.9584 1.08706 28.6832C1.27129 29.408 2.22933 30.0784 2.70835 29.9153C3.18736 29.7341 2.78204 28.6107 2.63465 27.5779C2.48726 26.5451 2.68992 26.0196 2.68992 26.0196C2.68992 26.0196 2.6715 23.9359 1.93455 24.4251Z" fill="#F1A73B"/>
<path d="M2.15564 24.2258C2.15564 24.2258 2.08195 24.1171 2.19249 23.8815C2.30303 23.6641 2.87417 23.6822 2.87417 23.6822C2.87417 23.6822 2.56097 24.2077 2.8189 24.6063C3.22422 25.2224 3.75851 25.2948 3.75851 25.2948C3.75851 25.2948 3.83221 25.5304 3.70324 25.6391C3.57427 25.7478 2.65309 26.1283 2.65309 26.1283C2.65309 26.1283 2.32146 25.6753 1.82402 25.3673C1.7319 24.8056 1.67663 24.6788 1.6582 24.5519C1.89771 24.4795 2.15564 24.2258 2.15564 24.2258Z" fill="#F1F1F1"/>
<path d="M2.59783 26.5088C2.59783 26.5088 2.0267 26.69 1.69507 26.7443C1.36344 26.7987 1.28975 27.2154 1.54768 27.2336C1.80561 27.2517 2.59783 27.1067 2.59783 27.1067V26.5088Z" fill="#232323"/>
<path d="M2.63461 27.4692C2.63461 27.4692 2.06347 27.5598 1.75027 27.6685C1.43706 27.7772 1.65815 28.1215 2.02662 28.0671C2.3951 27.9946 2.7083 27.9403 2.7083 27.9403L2.63461 27.4692Z" fill="#232323"/>
<path d="M0.847532 24.6788C0.847532 24.6788 0.939651 25.2948 0.736989 25.6753C0.534328 26.0559 0.497481 26.3095 0.681718 26.8531C0.847532 27.3967 1.2897 28.7557 1.45552 29.0275C1.62133 29.2992 2.13719 29.4261 2.52409 29.408C2.92942 29.408 2.92942 29.408 2.92942 29.408C2.92942 29.408 3.09523 30.0421 2.35828 30.0603C1.62133 30.0784 0.976498 29.5529 0.700142 28.5745C0.460633 27.596 0.368515 26.2914 0.368515 26.2914C0.368515 26.2914 -0.165774 25.313 0.0553108 25.0412C0.276396 24.7694 0.847532 24.6788 0.847532 24.6788Z" fill="#232323"/>
<path d="M7.4248 11.4153C7.4248 11.4153 8.34598 11.8683 9.08293 10.8898C9.81988 9.91135 10.0778 9.00537 9.78304 8.0994C9.48826 7.19342 9.00924 6.50488 9.00924 6.50488L8.69604 6.66796C8.69604 6.66796 7.3511 9.3134 7.4248 11.4153Z" fill="#232323"/>
<path d="M8.69606 6.66797C8.69606 6.66797 7.42482 6.72233 6.68787 7.79138C5.95092 8.86043 4.49544 9.82076 3.72165 11.1797C3.44529 11.6689 3.53741 11.7958 3.33475 12.2669C3.22421 12.5568 3.55583 12.9011 3.75849 13.1729C4.09012 13.6077 5.45348 14.5862 6.19043 15.6371C6.46678 16.3981 6.6326 16.833 6.98265 17.0323C7.14846 17.1229 7.3327 17.1773 7.59063 17.1954C8.08808 17.2135 8.64079 16.5069 8.4197 16.1082C8.89872 16.1082 8.89872 15.6552 8.64079 15.3291C7.94069 14.4956 7.09319 14.5862 7.09319 14.5862C7.09319 14.5862 6.50363 13.6077 6.13516 13.1185C5.78511 12.6293 5.60087 12.3575 5.60087 12.3575C5.60087 12.3575 7.14846 11.8501 7.77487 11.071C8.34601 11.071 8.97242 10.5274 9.24877 9.80264C9.69094 8.78795 9.24877 7.39275 8.69606 6.66797Z" fill="#F5C9B7"/>
<path d="M13.394 6.16062C13.394 6.16062 13.8546 6.77668 14.0757 7.37462C14.2968 7.97257 14.5179 9.0235 14.5179 9.0235C14.5179 9.0235 14.5363 7.86385 14.2968 7.13907C14.131 6.61361 13.6151 5.9613 13.6151 5.9613L13.394 6.16062Z" fill="#232323"/>
</svg>
