<svg width="25" height="38" viewBox="0 0 25 38" fill="none" xmlns="http://www.w3.org/2000/svg">
<path d="M20.7775 24.3893C20.6989 23.3168 20.365 21.2089 19.933 19.3968C18.8528 20.2104 17.1441 21.024 15.5925 21.1164C16.4567 22.91 17.5762 24.7221 17.5762 24.7221C17.5762 24.7221 17.5762 27.2184 18.401 29.1599C19.2456 31.1384 20.1097 31.8411 20.6989 34.5037C21.347 34.6886 22.2308 34.0045 22.2308 34.0045C22.2308 34.0045 20.856 25.5727 20.7775 24.3893Z" fill="#F3BAA6"/>
<path d="M15.9657 21.9115C17.4976 21.8376 18.8528 21.1904 20.149 20.4138C20.0312 19.8775 19.9133 19.3598 19.7955 18.879C19.3045 16.9745 18.951 15.0884 18.951 15.0884L13.6285 15.8466C13.6285 15.8466 13.2161 18.879 14.8069 19.2674C15.0622 20.044 15.514 21.0055 15.9657 21.9115Z" fill="#232323"/>
<path d="M18.46 6.24989C18.46 6.24989 19.2063 5.91705 20.0115 7.52575C20.7775 9.06048 21.5827 10.4288 22.1523 11.6677C22.879 13.2764 23.2914 14.6262 23.6057 15.4768C23.9199 16.3458 24.3913 18.5277 22.6433 18.2134C22.1327 18.1209 22.0345 17.6402 22.0541 17.2704C21.2685 17.067 22.3487 16.2164 22.3487 16.2164C22.3487 16.2164 21.8577 15.3473 21.2489 14.5153C20.6597 13.7202 20.3847 12.2964 20.3847 12.2964C20.3847 12.2964 18.951 11.5198 18.4404 10.1145C17.9297 8.70916 18.46 6.24989 18.46 6.24989Z" fill="#F3BBA7"/>
<path d="M10.9378 18.5647C10.329 20.7651 10.0147 23.7791 10.0147 23.7791C10.0147 23.7791 9.30771 22.5772 8.10967 21.8376C6.57775 20.8945 6.26352 21.024 4.79052 19.933C4.02456 20.4692 4.29952 20.4138 4.06384 21.2459C4.41736 21.5602 7.85435 25.4802 8.79707 26.4787C9.73978 27.4772 10.8396 27.1814 11.9984 26.2569C12.9018 25.5357 14.5712 22.6696 15.2782 21.4308C13.6089 20.876 12.0377 19.8406 10.9378 18.5647Z" fill="#F6CAB8"/>
<path d="M13.4714 15.033C12.4501 16.2903 11.802 15.8281 11.0949 18.047C10.8789 18.7496 10.6825 19.5632 10.5254 20.3768C11.3503 21.4492 13.1768 22.2259 14.6891 22.4662C15.0819 21.8006 15.6121 20.8575 15.6121 20.8575C15.6121 20.8575 17.2422 19.6741 17.4976 18.3428C17.7529 17.0115 17.144 15.0514 17.144 15.0514H13.4714V15.033Z" fill="#333333"/>
<path d="M16.3585 0.998501C16.4174 0.684158 16.2799 0.351324 15.9264 0.203398C15.6514 0.0924538 15.3568 0.110945 15.1211 0.295852C15.1015 0.314343 15.0622 0.351324 15.0426 0.369815C14.9247 0.166417 14.7087 0.0369815 14.4141 0.0369815C14.1588 0.0369815 13.9624 0.129435 13.7856 0.277361C13.5303 0.48076 13.3535 0.721139 13 0.776612C12.5483 0.850575 11.9591 0.536232 12.1751 0C11.7627 0 11.4092 0.388306 11.4681 0.73963C11.4877 0.869065 11.6056 1.05397 11.7431 1.2019C11.4485 1.33133 11.1931 1.64568 11.1539 1.88606C11.1146 2.12644 11.2128 2.38531 11.4681 2.49625C11.6056 2.55172 11.7823 2.57021 11.9395 2.55172C11.9984 2.62569 12.0769 2.69965 12.1751 2.75512C12.3715 2.88456 12.5483 2.97701 12.6072 3.1989C12.6661 3.42079 12.2341 3.69815 11.9002 3.75362C12.1751 4.1974 12.7251 4.21589 13.2946 3.97551C13.5499 3.86457 13.8053 3.64268 13.982 3.36532C14.3945 3.69815 15.0426 3.71664 15.5336 3.49475C16.4567 3.10645 17.0851 1.73813 16.3585 0.998501Z" fill="#232323"/>
<path d="M16.3192 1.7566C16.3192 1.7566 15.5533 1.22036 14.9837 1.7381C14.4141 2.23735 14.6891 3.23586 15.6907 3.1434C16.6727 3.05095 16.3192 1.7566 16.3192 1.7566Z" fill="#25282A"/>
<path d="M15.6907 4.91852C15.6907 4.91852 15.9461 5.69513 15.2979 6.28683C14.6498 6.87854 13.6482 7.24835 13.6482 7.24835C13.6482 7.24835 16.2996 9.61517 17.1048 9.98498C17.9101 10.3548 18.7349 9.85555 19.0885 9.3563C19.4616 8.85705 18.8921 6.93401 18.8921 6.93401C18.8921 6.93401 18.4207 7.08194 18.0083 6.23136C17.5958 5.39928 15.6907 4.91852 15.6907 4.91852Z" fill="#F3BBA7"/>
<path d="M15.8674 2.94002C17.7135 1.3683 19.2847 3.05096 19.5204 3.86455C19.7954 4.88155 19.5008 6.3793 18.3224 7.02647C17.7921 7.32232 16.7119 6.93402 16.2406 6.32382C15.5139 5.3808 14.905 3.7721 15.8674 2.94002Z" fill="#F6CAB8"/>
<path d="M18.6759 2.01547C18.1064 0.88753 15.0229 1.31282 15.0818 2.84755C14.4533 3.36529 14.7479 4.86304 15.5924 5.80607C16.4566 5.36229 16.3584 4.90002 16.7316 4.03096C17.6743 4.21587 19.7757 4.01247 20.5417 3.16189C20.3649 2.3483 19.5597 1.86754 18.6759 2.01547Z" fill="#333333"/>
<path d="M14.5319 6.80463C14.5319 6.80463 12.9803 7.32237 12.7839 7.76615C12.3715 8.6537 12.8232 10.5213 13.2356 12.4628C13.3928 13.1839 13.6088 13.979 13.491 14.5707C13.432 14.8851 12.8821 15.4953 12.234 16.0315C12.4108 16.3643 15.2978 19.138 19.324 16.9191C19.1865 15.2549 18.7741 13.0175 19.0098 11.9266C19.4811 11.7047 20.4631 10.9466 19.815 9.68918C19.3633 8.82012 18.5581 6.89708 18.5581 6.89708L18.2242 7.08199C18.2242 7.08199 18.7741 9.09748 16.6923 8.61672C15.0425 8.22841 14.5319 6.80463 14.5319 6.80463Z" fill="#25282A"/>
<path d="M16.6924 4.86309C16.6924 4.86309 16.1424 4.21591 15.7496 4.73365C15.3569 5.23291 16.0835 5.67668 16.0835 5.67668L16.6924 4.86309Z" fill="#F6CAB8"/>
<path d="M13.707 7.11896C13.707 7.11896 13.0589 7.15594 12.4697 7.50726C12.018 7.76613 11.743 8.33935 11.3502 8.94954C10.2504 10.0775 9.72011 10.4473 8.89523 11.6122C8.22747 12.5552 8.07035 12.8326 8.28639 13.2764C8.50243 13.7202 9.32731 15.033 10.8592 16.4198C11.0753 17.5662 11.5073 18.1394 12.018 18.2134C12.2537 18.2504 12.5875 18.2319 12.7643 17.9176C13.3731 17.8066 13.3339 17.3813 12.9411 16.8451C13.6481 16.2904 12.3715 15.8836 11.9787 15.5138C11.3306 14.7371 10.6432 13.6462 10.1522 12.999C10.761 12.4073 12.4108 11.6862 12.9214 11.039C13.3339 11.1315 14.0605 11.2979 14.5319 10.2624C15.0032 9.2269 13.707 7.11896 13.707 7.11896Z" fill="#F6CAB8"/>
<path d="M14.3749 6.87858L14.6891 6.73065C14.6891 6.73065 15.4551 7.87708 16.3192 8.26538C17.1834 8.67218 17.6155 8.52425 17.9297 8.15444C18.2243 7.8401 18.0868 7.10047 18.0868 7.10047L18.3225 7.0265C18.3225 7.0265 18.8135 8.35784 17.5369 8.85709C15.9657 9.46728 14.3749 6.87858 14.3749 6.87858Z" fill="#333333"/>
<path d="M14.7872 4.12344C14.7872 4.12344 15.4943 4.75213 17.144 4.71515C18.7938 4.65967 19.6187 4.28986 19.6187 4.28986V3.27287C19.6187 3.27287 17.8904 3.66117 16.6727 3.55023C15.455 3.43928 14.7872 3.14343 14.7872 3.14343C14.7872 3.14343 14.5123 3.64268 14.7872 4.12344Z" fill="#25282A"/>
<path d="M5.79215 20.5987C5.79215 20.5987 5.3208 19.9146 4.81016 19.5078C4.45664 19.2304 3.2586 20.7836 3.04256 21.0425C2.82652 21.3014 1.58921 21.7821 1.37317 22.6697C1.15713 23.5572 1.62849 23.7237 1.96237 23.8346C2.31589 23.9455 5.04584 21.9855 5.04584 21.9855C5.04584 21.9855 4.71196 21.4863 4.61376 21.061C5.10476 20.8946 5.79215 20.5987 5.79215 20.5987Z" fill="#25282A"/>
<path d="M5.20298 19.8591C5.20298 19.8591 3.92638 19.97 3.23898 20.95C1.47139 22.2074 1.33391 22.6512 1.51067 23.2429C1.68743 23.8531 1.96239 23.8161 1.96239 23.8161C1.96239 23.8161 1.47139 23.964 1.13751 23.4093C0.803633 22.8546 1.05895 22.3738 1.54995 21.8561C2.04095 21.3383 3.04259 20.6912 3.04259 20.6912C3.04259 20.6912 3.82818 19.5447 4.45666 19.4708C5.02622 19.3968 5.20298 19.8591 5.20298 19.8591Z" fill="#333333"/>
<path d="M2.61047 23.5942C2.61047 23.5942 2.41407 23.1689 3.04255 22.6142C3.72995 21.9855 4.61375 21.3384 5.06547 21.6712C5.75286 22.1704 5.65466 23.1505 5.30115 22.7806C5.20295 22.6697 4.92799 22.4108 4.81015 22.3369C4.65303 22.3923 4.43699 22.5403 4.24059 22.6697L2.61047 23.5942Z" fill="#333333"/>
<path d="M14.1588 12.1115C14.1588 12.1115 15.3176 12.5552 16.3781 12.2779C17.4387 12.0005 18.0868 11.8526 18.0868 11.8526C18.0868 11.8526 17.1441 12.5922 16.2799 12.8696C15.4158 13.1285 14.1588 12.1115 14.1588 12.1115Z" fill="#25282A"/>
<path d="M4.35846 22.5772L3.82818 21.7266L3.55322 21.9115L4.0835 22.7436L4.35846 22.5772Z" fill="white"/>
<path d="M3.78888 22.9285L3.23896 22.0594L2.98364 22.2444L3.51392 23.0949L3.78888 22.9285Z" fill="white"/>
<path d="M20.1882 32.932C20.1882 32.932 20.2668 33.6532 20.1882 34.2079C20.09 34.8551 19.8936 35.2989 20.6399 35.5577C20.9149 35.6502 21.347 35.8721 21.9951 36.1864C22.5646 36.4823 23.3502 36.9076 23.9787 36.7966C24.6661 36.6857 25.0982 36.5193 24.9803 36.094C24.8625 35.6132 24.1162 35.0585 23.4877 34.6147C22.4075 33.8566 21.8969 32.8026 21.8969 32.8026L20.797 33.5238L20.1882 32.932Z" fill="#25282A"/>
<path d="M20.0901 34.5222C20.0901 34.5222 20.4043 34.929 20.6989 35.0954C21.2881 35.4468 21.4059 35.6317 21.9755 36.0569C22.604 36.5192 23.4289 36.5562 24.077 36.3343C24.3716 36.2234 24.9608 36.0939 24.9608 36.0939C24.9608 36.0939 25.2357 36.7596 23.9591 37C22.7022 37.2219 21.0328 35.7796 21.0328 35.7796C21.0328 35.7796 19.7169 35.8351 20.0901 34.5222Z" fill="#333333"/>
<path d="M21.1506 33.2649C21.1506 33.2649 21.2685 33.912 21.9951 34.5222C22.7218 35.1324 22.9968 35.3358 23.3306 35.2988C23.6645 35.2619 23.9788 34.9845 23.9788 34.9845C23.9788 34.9845 22.82 34.1524 22.4468 33.6162C22.054 33.08 22.1719 32.2109 21.6416 32.4143C21.131 32.6177 21.1506 33.2649 21.1506 33.2649Z" fill="#232323"/>
<path d="M21.3667 34.5407C21.3667 34.5407 21.6809 34.2634 21.9952 34.0784C22.3291 33.8935 22.5844 33.7826 22.5844 33.7826L22.8201 34.023C22.8201 34.023 22.5255 34.0969 22.1327 34.3188C21.7988 34.5037 21.6024 34.7626 21.6024 34.7626L21.3667 34.5407Z" fill="white"/>
<path d="M21.838 35.003C21.838 35.003 22.1523 34.7256 22.4665 34.5407C22.8004 34.3558 23.0557 34.2449 23.0557 34.2449L23.3306 34.4853C23.3306 34.4853 22.9968 34.5777 22.604 34.7996C22.2701 34.9845 22.0737 35.2434 22.0737 35.2434L21.838 35.003Z" fill="white"/>
</svg>
