<svg width="49" height="49" viewBox="0 0 49 49" fill="none" xmlns="http://www.w3.org/2000/svg">
<g clip-path="url(#clip0_573_5104)">
<path fill-rule="evenodd" clip-rule="evenodd" d="M24.1 0.32666C10.3 0.32666 0 10.6267 0 24.4267C0 38.2267 10.3 48.5267 24.1 48.5267C37.9 48.5267 48.2 38.2267 48.2 24.4267C48.2 10.6267 37.9 0.32666 24.1 0.32666ZM24.1 44.6267C12.5 44.6267 4.1 36.1267 4.1 24.4267C4.1 12.7267 12.5 4.22666 24.1 4.22666C35.7 4.22666 44.1 12.8267 44.1 24.4267C44.1 36.1267 35.7 44.6267 24.1 44.6267Z" fill="white"/>
<path fill-rule="evenodd" clip-rule="evenodd" d="M32.4 17.3269C34.3 17.3269 35.9 15.8269 35.9 13.9269C35.9 12.0269 34.3 10.5269 32.4 10.5269C30.5 10.5269 29 12.0269 29 13.9269C29 15.8269 30.5 17.3269 32.4 17.3269Z" fill="white"/>
<path fill-rule="evenodd" clip-rule="evenodd" d="M38.7 18.6269C38.4 18.3269 38 18.1269 37.6 18.1269C37.2 18.1269 36.8 18.2269 36.6 18.5269L33.6 21.3269C33.6 21.3269 26.2 14.3269 24.9 13.0269C24.5 12.6269 24.2 12.5269 23.9 12.5269C23.8 12.5269 23.6 12.5269 23.5 12.5269L17.6 13.9269C16.8 14.1269 16.3 14.9269 16.5 15.7269C16.7 16.4269 17.3 16.9269 18 16.9269C18.1 16.9269 18.2 16.9269 18.4 16.9269L23.4 15.7269C23.7 16.1269 25.4 17.9269 25.7 18.2269C23.6 20.4269 21.6 22.6269 19.5 24.9269L19.4 25.0269C19.2 25.3269 19.1 25.7269 19.1 26.0269L16.5 29.3269L10.6 30.4269C9.69998 30.6269 9.19998 31.4269 9.39998 32.2269C9.49998 33.0269 10.2 33.5269 10.9 33.5269C11 33.5269 11.1 33.5269 11.2 33.5269L17.7 32.3269C18.1 32.2269 18.4 32.0269 18.6 31.7269L21.5 28.2269L26.3 30.7269L23 36.1269C22.5 36.8269 22.8 37.8269 23.5 38.3269C23.8 38.5269 24 38.5269 24.3 38.5269C24.8 38.5269 25.3 38.2269 25.6 37.7269L29.8 30.9269C30 30.5269 30.1 30.1269 30 29.6269C29.9 29.2269 29.6 28.8269 29.2 28.7269L24.9 26.5269L29.4 21.7269L32.8 24.6269C33.1 24.8269 33.5 25.0269 33.8 25.0269C34.2 25.0269 34.6 24.8269 34.8 24.6269L38.7 20.9269C39.2 20.1269 39.3 19.2269 38.7 18.6269Z" fill="white"/>
</g>
<defs>
<clipPath id="clip0_573_5104">
<rect width="48.2" height="48.2" fill="white" transform="translate(0 0.32666)"/>
</clipPath>
</defs>
</svg>
