<svg width="28" height="28" viewBox="0 0 28 28" fill="none" xmlns="http://www.w3.org/2000/svg">
<path d="M21.5 7.875C22.3288 7.875 23.1237 7.54576 23.7097 6.95971C24.2958 6.37366 24.625 5.5788 24.625 4.75C24.625 3.9212 24.2958 3.12634 23.7097 2.54029C23.1237 1.95424 22.3288 1.625 21.5 1.625C20.6712 1.625 19.8763 1.95424 19.2903 2.54029C18.7042 3.12634 18.375 3.9212 18.375 4.75C18.375 5.5788 18.7042 6.37366 19.2903 6.95971C19.8763 7.54576 20.6712 7.875 21.5 7.875Z" stroke="white" stroke-width="2.5"/>
<path d="M6.49994 8.98128L11.5018 7.24878L18.3749 10.5294L11.5018 15.6525L18.3749 20.1775L14.0049 25.9988M21.0749 12.0269L22.7512 12.9388L26.4999 9.41628M9.53057 18.2157L7.67432 20.6607L1.50244 24.1232" stroke="white" stroke-width="2.5" stroke-linecap="round" stroke-linejoin="round"/>
</svg>
