<svg width="49" height="49" viewBox="0 0 49 49" fill="none" xmlns="http://www.w3.org/2000/svg">
<path d="M35.7 26.7998C37.9001 26.5998 39.5001 24.6998 39.3001 22.5998C39.1001 20.3998 37.2001 18.7998 35.1 18.9998C32.9 19.1998 31.3 21.0998 31.5 23.1998C31.6 25.3998 33.5 26.9998 35.7 26.7998Z" fill="white"/>
<path d="M24.5 0C10.6999 0 0.399902 10.3 0.399902 24.1001C0.399902 37.9002 10.6999 48.2002 24.5 48.2002C38.3001 48.2002 48.6001 37.9002 48.6001 24.1001C48.6001 10.3 38.3001 0 24.5 0ZM24.5 3.90002C36.1001 3.90002 44.5001 12.5001 44.5001 24.1001C44.5001 25.9001 44.3001 27.7001 43.9001 29.4001C43.9001 29.4001 43.8001 29.4001 43.8001 29.3001C43.1001 28.9001 42.2001 28.4001 40.6001 28.4001C39.0001 28.4001 38.1001 28.9001 37.4001 29.3001C36.8001 29.7001 36.3001 30.0001 35.2 30.0001C34.1 30.0001 33.6 29.7001 33 29.3001C32.3 28.9001 31.4 28.4001 29.9 28.4001C30.6 27.8001 31.2 27.4001 31.2 27.3001C31.5 26.4001 31.5 25.4001 31.1 24.6001C30.9 24.0001 30.1 23.3001 29 22.8001C27.7 22.2001 20.1 18.7001 20.1 18.7001C19.7 18.5001 19.2 18.5001 18.8 18.6001L10.8999 21.5001C9.99994 21.8001 9.49994 22.9001 9.89994 23.8001C10.1999 24.7001 11.2999 25.2001 12.2 24.8001L19.4 22.2001L23.6 24.1001L11.5999 29.5001C11.4999 29.4001 11.3999 29.4001 11.2999 29.3001C10.5999 28.9001 9.69994 28.4001 8.09993 28.4001C6.69993 28.4001 5.79993 28.8001 5.19992 29.2001C4.79992 27.6001 4.59992 25.9001 4.59992 24.2001C4.49992 12.4001 12.9 3.90002 24.5 3.90002ZM24.5 44.3002C15.4 44.3002 8.29994 39.0002 5.59992 31.1001C5.69992 31.1001 5.69992 31.0001 5.79992 31.0001C6.39993 30.6001 6.89993 30.3001 7.99993 30.3001C9.09994 30.3001 9.59994 30.6001 10.1999 31.0001C10.8999 31.4001 11.7999 31.9001 13.4 31.9001C15 31.9001 15.9 31.4001 16.6 31.0001C17.2 30.6001 17.7 30.3001 18.8 30.3001C19.9 30.3001 20.4 30.6001 21 31.0001C21.7 31.4001 22.6 31.9001 24.2 31.9001C25.8 31.9001 26.7 31.4001 27.4 31.0001C28 30.6001 28.5 30.3001 29.6 30.3001C30.7 30.3001 31.2 30.6001 31.8 31.0001C32.5 31.4001 33.4 31.9001 35 31.9001C36.6001 31.9001 37.5001 31.4001 38.2001 31.0001C38.8001 30.6001 39.3001 30.3001 40.4001 30.3001C41.5001 30.3001 42.0001 30.6001 42.6001 31.0001C42.8001 31.1001 42.9001 31.2001 43.1001 31.3001C40.6001 39.1002 33.5 44.3002 24.5 44.3002Z" fill="white"/>
</svg>
