<svg width="23" height="31" viewBox="0 0 23 31" fill="none" xmlns="http://www.w3.org/2000/svg">
<g clip-path="url(#clip0_627_2894)">
<path d="M17.1334 30.1129C17.2859 30.2105 17.4588 30.2565 17.6308 30.2493C17.8031 30.242 17.9733 30.1813 18.1194 30.0697C18.2661 29.9578 18.3828 29.7987 18.4495 29.609C18.5162 29.4191 18.528 29.2112 18.4827 29.0131L18.4822 29.0105L17.0909 22.8261L16.9949 22.3993L17.3192 22.1056L19.9621 19.7122L19.9575 19.713L21.8794 17.9715C22.0183 17.8455 22.1232 17.6751 22.1754 17.479C22.2276 17.2828 22.2234 17.0741 22.1636 16.8808C22.1038 16.6876 21.9927 16.5226 21.8496 16.4035C21.7073 16.285 21.5392 16.2164 21.3672 16.2009C21.3667 16.2008 21.3663 16.2008 21.3658 16.2007L15.3818 15.6941L14.9177 15.6548L14.7471 15.2214L12.4385 9.35548L12.4379 9.35396C12.3651 9.16756 12.2433 9.01392 12.0935 8.90856C11.9443 8.80355 11.7728 8.75 11.6006 8.75C11.4284 8.75 11.2569 8.80355 11.1076 8.90856C10.9579 9.01392 10.8361 9.16756 10.7632 9.35396L10.7626 9.35558L8.45298 15.2215L8.28239 15.6548L7.8184 15.6941L1.83456 16.2007C1.6632 16.2171 1.49602 16.286 1.35449 16.4044C1.21186 16.5238 1.10123 16.6887 1.04183 16.8817C0.982375 17.0748 0.978376 17.2831 1.0306 17.479C1.08277 17.6747 1.1875 17.8449 1.32612 17.9707M17.1334 30.1129C17.1331 30.1127 17.1337 30.1131 17.1334 30.1129ZM17.1334 30.1129L12.01 26.8037L11.6032 26.5409L11.1964 26.8036L6.07219 30.1114C6.0717 30.1117 6.07122 30.112 6.07073 30.1123C5.91846 30.209 5.74609 30.2544 5.57464 30.2469C5.40257 30.2394 5.23277 30.1786 5.0869 30.0671C4.94057 29.9553 4.82403 29.7965 4.75743 29.6071C4.69076 29.4175 4.67874 29.21 4.72372 29.0121L4.72396 29.0111L6.12028 22.8267L6.21672 22.3995L5.89213 22.1056L1.32612 17.9707M1.32612 17.9707C1.32608 17.9706 1.32617 17.9708 1.32612 17.9707Z" stroke="white" stroke-width="1.5"/>
<path d="M20.4689 2.5001C20.4689 2.50399 20.4518 2.6776 19.9811 2.95751C19.5496 3.21416 18.8852 3.46622 18.0115 3.68599C16.2733 4.12322 13.84 4.4001 11.1299 4.4001C8.41989 4.4001 5.98664 4.12322 4.24842 3.68599C3.37472 3.46622 2.71031 3.21416 2.27875 2.95751C1.80806 2.6776 1.79102 2.50399 1.79102 2.5001C1.79102 2.49621 1.80806 2.3226 2.27875 2.04269C2.71031 1.78604 3.37472 1.53398 4.24842 1.31421C5.98664 0.876983 8.41989 0.600098 11.1299 0.600098C13.84 0.600098 16.2733 0.876983 18.0115 1.31421C18.8852 1.53398 19.5496 1.78604 19.9811 2.04269C20.4518 2.3226 20.4689 2.49621 20.4689 2.5001Z" stroke="white" stroke-width="1.2"/>
</g>
<defs>
<clipPath id="clip0_627_2894">
<rect width="23" height="31" fill="white"/>
</clipPath>
</defs>
</svg>
