<svg width="32" height="28" viewBox="0 0 32 28" fill="none" xmlns="http://www.w3.org/2000/svg">
<path d="M27.1491 22.3995C26.9927 23.7803 26.8362 25.0844 26.6797 26.4652V26.7721L26.5232 28.0762H25.2714L25.4279 26.6953L25.8191 23.5501C25.8191 23.4734 25.8191 23.3967 25.8191 23.32V22.8597H23.2372C22.3765 22.8597 22.1418 23.0132 22.0636 23.857C21.9853 24.5474 21.9071 24.931 21.8288 25.3145C21.7506 25.6981 21.7506 26.0816 21.5941 27.0789C21.5941 27.309 21.4377 27.4625 21.3594 27.6159C21.2029 27.6926 21.0465 27.7693 20.89 27.6926C20.4988 27.6159 20.3423 27.309 20.3423 26.9255C20.4988 25.6981 20.577 25.0077 20.6553 24.3173C20.7335 23.6269 20.8117 22.9364 20.9682 21.6323C21.0465 21.2488 21.0465 20.8652 21.1247 20.4816L21.2029 20.0214H10.5623L10.6406 20.4049C10.7188 20.8652 10.7188 21.3255 10.7971 21.7858L11.11 24.5474C11.1883 25.2378 11.2665 25.6981 11.423 27.0022C11.423 27.3858 11.2665 27.6159 10.9535 27.6926C10.6406 27.7693 10.3276 27.6159 10.1711 27.309C10.1711 27.2323 10.0929 27.0789 10.0929 27.0022V26.9255C9.93643 25.6214 9.85819 25.3145 9.77995 24.6241L9.62347 23.32C9.62347 23.0899 9.38875 22.7063 8.99755 22.7063C8.37164 22.7063 7.66748 22.7063 7.04156 22.7063H5.94621L6.02445 23.7036C6.10269 24.3173 6.18093 24.931 6.25917 25.5447L6.41565 26.6953L6.57213 27.9995H5.32029L5.24205 27.0789L5.00733 25.0077C4.77262 24.0104 4.69438 23.1666 4.61614 22.246C4.61614 22.0159 4.61614 21.7858 4.77262 21.6323C4.92909 21.5556 5.16381 21.4789 5.32029 21.4789C6.10269 21.4789 6.88508 21.4789 7.74572 21.4789H9.46699L9.38875 21.0953C9.31051 20.5584 9.31051 20.0981 9.23227 19.5611C9.23227 19.4077 9.23227 19.1008 9.38875 18.9474C9.54523 18.794 9.77995 18.7173 9.93643 18.7173C10.1711 18.7173 10.4841 18.7173 10.7971 18.7173H11.6577V17.72C11.6577 17.3364 11.6577 16.9529 11.6577 16.5693C11.6577 16.2625 11.8142 16.0323 12.0489 15.9556C12.2836 15.8789 12.4401 15.9556 12.5966 16.0323C12.7531 16.109 12.8313 16.3392 12.9095 16.5693C12.9095 16.8762 12.9095 17.183 12.9095 17.4899V18.6405H18.8557V16.5693C18.8557 16.1858 19.0905 15.9556 19.4817 15.8789C19.7946 15.8789 20.1076 16.1858 20.1076 16.4926C20.1076 16.8762 20.1076 17.2597 20.1076 17.5666V18.0269C20.1076 18.1036 20.1076 18.1803 20.1076 18.257L20.1858 18.5638H20.9682C21.2812 18.5638 21.5159 18.5638 21.8288 18.5638C21.9853 18.5638 22.22 18.5638 22.3765 18.794C22.533 18.9474 22.533 19.1775 22.533 19.4077L22.2983 21.4789H26.3667C26.6797 21.4789 26.9144 21.5556 26.9927 21.709C27.2274 21.8625 27.2274 22.1693 27.1491 22.3995Z" fill="white"/>
<path d="M32 16.1088C32 17.0293 31.4523 17.7965 30.5134 18.18C29.5746 18.5636 28.6357 18.8704 27.6968 19.1773L25.6626 19.9444C25.3496 20.0211 24.8802 20.1746 24.6455 19.6376C24.5672 19.4841 24.5672 19.3307 24.6455 19.1773C24.7237 19.0239 24.9584 18.8704 25.1932 18.717L26.2885 18.3335C27.4621 17.8732 28.7139 17.4896 29.8875 17.0293C30.1222 16.9526 30.5134 16.6458 30.5917 16.3389C30.7482 16.0321 30.5917 15.5718 30.2787 15.3417C30.044 15.1883 29.5746 15.1115 29.2616 15.1883C28.5575 15.4184 27.8533 15.6485 27.2274 15.8787L26.0538 16.2622C25.5844 16.4157 25.1149 16.5691 24.5672 16.7992C24.176 16.9526 23.8631 16.8759 23.5501 16.5691C23.0807 16.1088 22.6112 15.5718 22.22 15.1115C21.8288 14.728 21.5159 14.3444 21.1247 13.9609C20.1858 12.9636 19.0122 12.4266 17.6039 12.4266C16.7433 12.4266 15.8826 12.4266 14.9438 12.4266H14.1614C12.9095 12.4266 11.8142 12.8869 10.8753 13.8074C10.0147 14.728 9.15403 15.6485 8.2934 16.5691C7.98044 16.8759 7.74572 16.9526 7.27628 16.7992C6.18093 16.4156 5.16381 16.0321 4.06846 15.6485L2.73839 15.1883C2.66015 15.1883 2.58191 15.1115 2.58191 15.1115C1.95599 14.9581 1.48655 15.1883 1.25183 15.7252C1.09535 16.2622 1.33007 16.7992 1.87775 16.9526C2.9731 17.3362 4.06846 17.7965 5.16381 18.18L6.57213 18.717C6.65037 18.717 6.72861 18.7937 6.80685 18.7937C7.1198 18.9472 7.27628 19.3307 7.19804 19.6376C7.19804 19.9444 6.88509 20.0978 6.49389 19.9444C5.55501 19.5609 4.5379 19.254 3.59902 18.8704L2.11247 18.4102C1.87775 18.3335 1.64303 18.2567 1.40831 18.18C0.312958 17.643 -0.312958 16.4157 0.156479 15.3417C0.469438 14.4211 1.33007 13.8074 2.26895 13.8074C2.50367 13.8074 2.73839 13.8074 2.9731 13.9609C4.22494 14.3444 5.47677 14.8047 6.72861 15.265L7.04156 15.4184C7.43276 15.5718 7.74572 15.4951 7.98044 15.1883C8.44988 14.728 8.91931 14.191 9.38875 13.7307L9.93643 13.117C11.11 11.8129 12.5183 11.1992 14.2396 11.2759C15.4132 11.2759 16.5086 11.2759 17.6039 11.2759C19.3252 11.1992 20.8117 11.8896 21.9853 13.1937L22.6895 13.9609C23.0807 14.4211 23.4719 14.8047 23.9413 15.265C24.176 15.5718 24.489 15.6485 24.8802 15.4951L25.4279 15.3417C26.6015 14.9581 27.7751 14.4978 28.9487 14.1143C29.5746 13.8841 30.2787 13.9609 30.8264 14.2677C31.3741 14.5746 31.7653 15.1115 31.9218 15.802C31.9218 15.8787 31.9218 15.9554 31.9218 16.1088H32Z" fill="white"/>
<path d="M18.6993 3.37529C17.9951 2.68488 16.978 2.22461 15.9609 2.22461H15.8826C14.8655 2.22461 13.9267 2.60817 13.2225 3.29858C12.4401 3.98899 12.0489 4.90954 12.0489 5.9068C12.0489 6.98077 12.4401 7.97803 13.1443 8.66844C13.8484 9.35886 14.8655 9.81913 15.8826 9.81913C16.8998 9.81913 17.9169 9.43557 18.621 8.74516C19.4034 8.05475 19.7946 7.05749 19.7946 6.06023C19.7946 5.06297 19.4034 4.14242 18.6993 3.37529ZM15.8826 8.59173C15.1785 8.59173 14.5526 8.28488 14.0831 7.82461C13.6137 7.36434 13.3007 6.67392 13.3007 5.98351C13.3007 4.52598 14.4743 3.45201 15.9609 3.45201C16.665 3.45201 17.291 3.75886 17.7604 4.21913C18.2298 4.6794 18.5428 5.36981 18.5428 6.06023C18.4645 7.44105 17.291 8.59173 15.8826 8.59173Z" fill="white"/>
<path d="M7.74572 6.82788C6.96332 7.13473 6.10269 7.44158 5.24205 7.74843L4.5379 7.97856H4.45966C4.1467 7.97856 3.91198 7.82514 3.83374 7.51829C3.7555 7.36487 3.83374 7.05802 4.1467 6.90459C5.16381 6.52103 6.25917 6.13747 7.27628 5.75391C7.35452 5.75391 7.43276 5.75391 7.43276 5.75391C7.66748 5.75391 7.9022 5.90733 7.98044 6.13747C8.13692 6.3676 8.05868 6.75117 7.74572 6.82788Z" fill="white"/>
<path d="M8.13692 2.45494C7.98044 2.76179 7.66748 2.8385 7.35452 2.76179C6.33741 2.22481 5.32029 1.68782 4.38142 1.15083C4.22494 1.07412 4.06846 0.920697 4.06846 0.613847C4.06846 0.38371 4.22494 0.153573 4.38142 0.076861C4.5379 0.000148691 4.69438 -0.0765636 4.92909 0.076861C6.02445 0.613847 7.1198 1.22755 7.9022 1.68782C8.21516 1.84124 8.2934 2.22481 8.13692 2.45494Z" fill="white"/>
</svg>
