<svg width="49" height="49" viewBox="0 0 49 49" fill="none" xmlns="http://www.w3.org/2000/svg">
<path d="M24.1 0C10.3 0 0 10.3 0 24.1C0 37.9 10.3 48.2 24.1 48.2C37.9 48.2 48.2 37.9 48.2 24.1C48.2 10.3 37.9 0 24.1 0ZM24.1 44.3C12.5 44.3 4.1 35.8 4.1 24.1C4.1 12.4 12.5 3.9 24.1 3.9C35.7 3.9 44.1 12.5 44.1 24.1C44.1 35.8 35.7 44.3 24.1 44.3Z" fill="white"/>
<path fill-rule="evenodd" clip-rule="evenodd" d="M21.0001 10.4C22.6001 10.4 23.9001 11.7 23.9001 13.3C23.9001 14.9 22.6001 16.2 21.0001 16.2C19.4001 16.2 18.1001 14.9 18.1001 13.3C18.2001 11.7 19.4001 10.4 21.0001 10.4Z" fill="white"/>
<path fill-rule="evenodd" clip-rule="evenodd" d="M20.6002 17.4002C19.9002 17.4002 19.3002 18.0002 19.3002 18.7002L19.4002 26.9002L13.0002 31.0002C12.5002 31.3002 12.2002 31.8002 11.9002 32.3002C11.2002 33.8002 10.4002 36.6002 9.50023 39.0002C9.00023 40.3002 9.80023 41.0002 10.4002 41.2002C10.6002 41.3002 10.8002 41.3002 11.0002 41.3002C11.6002 41.3002 12.1002 40.9002 12.4002 40.4002L15.3002 33.8002L20.7002 30.4002C19.7002 31.7002 18.8002 33.1002 18.1002 34.2002C17.7002 34.9002 17.7002 35.3002 17.8002 35.9002C18.1002 37.3002 18.7002 38.6002 19.8002 41.2002C20.0002 41.8002 20.6002 42.1002 21.2002 42.1002C21.4002 42.1002 21.6002 42.1002 21.8002 42.0002C22.6002 41.7002 22.9002 40.8002 22.6002 40.1002L21.1002 35.8002C21.1002 35.8002 22.6002 33.4002 24.1002 31.3002C24.8002 30.4002 25.7002 29.5002 25.7002 28.1002C25.7002 27.1002 25.7002 21.8002 25.7002 19.0002C25.7002 18.1002 25.0002 17.3002 24.0002 17.3002H20.6002V17.4002Z" fill="white"/>
<path fill-rule="evenodd" clip-rule="evenodd" d="M19.9003 17.6L11.7003 22.8C11.1003 23.2 11.0003 23.9 11.3003 24.5C11.6003 25.1 12.4003 25.3 13.0003 25L22.3003 19.1L19.9003 17.6Z" fill="white"/>
<path fill-rule="evenodd" clip-rule="evenodd" d="M21.3003 21.2999L19.5003 25C19.1003 25.9 18.2003 26.4 17.2003 26.4H12.5003C11.8003 26.4 11.3003 25.8 11.3003 25.1C11.3003 24.4 11.9003 23.9 12.5003 23.9H16.3003C16.6003 23.9 16.9003 23.7 17.1003 23.4L19.4003 18.7L21.3003 21.2999Z" fill="white"/>
<path fill-rule="evenodd" clip-rule="evenodd" d="M36.8003 10.4C38.4003 10.4 39.7003 11.7 39.7003 13.3C39.7003 14.9 38.4003 16.2 36.8003 16.2C35.2003 16.2 33.9003 14.9 33.9003 13.3C33.9003 11.7 35.2003 10.4 36.8003 10.4Z" fill="white"/>
<path fill-rule="evenodd" clip-rule="evenodd" d="M36.4 17.4002C35.7 17.4002 35.1 18.0002 35.1 18.7002L35.2 26.9002L28.8 31.0002C28.3 31.3002 28 31.8002 27.7 32.3002C27 33.8002 26.2 36.6002 25.3 39.0002C24.8 40.3002 25.6 41.0002 26.2 41.2002C26.4 41.3002 26.6 41.3002 26.8 41.3002C27.4 41.3002 27.9 40.9002 28.2 40.4002L31.1 33.8002L36.5 30.4002C35.5 31.7002 34.6 33.1002 33.9 34.2002C33.5 34.9002 33.5 35.3002 33.6 35.9002C33.9 37.3002 34.5 38.6002 35.6 41.2002C35.8 41.8002 36.4 42.1002 37 42.1002C37.2 42.1002 37.4 42.1002 37.6 42.0002C38.4 41.7002 38.7 40.8002 38.4 40.1002L36.9 35.8002C36.9 35.8002 38.4 33.4002 39.9 31.3002C40.6 30.4002 41.5 29.5002 41.5 28.1002C41.5 27.1002 41.5 21.8002 41.5 19.0002C41.5 18.1002 40.8 17.3002 39.8 17.3002H36.4V17.4002Z" fill="white"/>
<path fill-rule="evenodd" clip-rule="evenodd" d="M35.7001 17.6L27.5001 22.8C26.9001 23.2 26.8001 23.9 27.1001 24.5C27.4001 25.1 28.2001 25.3 28.8001 25L38.1001 19.1L35.7001 17.6Z" fill="white"/>
<path fill-rule="evenodd" clip-rule="evenodd" d="M37.1001 21.2999L35.2001 25C34.8001 25.9 33.9001 26.4 32.9001 26.4H28.2001C27.5001 26.4 27.0001 25.8 27.0001 25.1C27.0001 24.4 27.6001 23.9 28.2001 23.9H32.0001C32.3001 23.9 32.6001 23.7 32.8001 23.4L35.1001 18.7L37.1001 21.2999Z" fill="white"/>
<path d="M45.7001 23.7002H0.600098V25.5002H45.7001V23.7002Z" fill="white"/>
</svg>
