<svg width="40" height="40" viewBox="0 0 40 40" fill="none" xmlns="http://www.w3.org/2000/svg">
<path d="M18.5714 30.22V5.50571L11.9143 12.1629L9.89143 10.1086L20 0L30.1086 10.1086L28.0886 12.1657L21.4286 5.50571V30.22H18.5714ZM4.61428 40C3.3 40 2.20286 39.56 1.32286 38.68C0.440952 37.7981 0 36.7 0 35.3857V28.4629H2.85714V35.3857C2.85714 35.8238 3.04 36.2267 3.40571 36.5943C3.77333 36.96 4.17619 37.1429 4.61428 37.1429H35.3857C35.8238 37.1429 36.2267 36.96 36.5943 36.5943C36.96 36.2267 37.1429 35.8238 37.1429 35.3857V28.4629H40V35.3857C40 36.7 39.56 37.7971 38.68 38.6771C37.7981 39.5591 36.7 40 35.3857 40H4.61428Z" fill="#A2A2A2"/>
</svg>
