<svg width="166" height="166" viewBox="0 0 166 166" fill="none" xmlns="http://www.w3.org/2000/svg">
<path d="M83 15.5625C69.6622 15.5625 56.6238 19.5176 45.5338 26.9278C34.4437 34.3379 25.8001 44.8702 20.6959 57.1928C15.5917 69.5154 14.2562 83.0748 16.8583 96.1564C19.4604 109.238 25.8832 121.254 35.3145 130.686C44.7458 140.117 56.762 146.54 69.8436 149.142C82.9252 151.744 96.4846 150.408 108.807 145.304C121.13 140.2 131.662 131.556 139.072 120.466C146.482 109.376 150.438 96.3379 150.438 83C150.419 65.1203 143.308 47.9782 130.665 35.3353C118.022 22.6924 100.88 15.5814 83 15.5625ZM107.42 100.08C107.902 100.562 108.284 101.134 108.545 101.764C108.806 102.393 108.94 103.068 108.94 103.75C108.94 104.432 108.806 105.107 108.545 105.736C108.284 106.366 107.902 106.938 107.42 107.42C106.938 107.902 106.366 108.284 105.736 108.545C105.107 108.806 104.432 108.94 103.75 108.94C103.068 108.94 102.393 108.806 101.764 108.545C101.134 108.284 100.562 107.902 100.08 107.42L83 90.3338L65.9202 107.42C65.4382 107.902 64.866 108.284 64.2363 108.545C63.6066 108.806 62.9316 108.94 62.25 108.94C61.5684 108.94 60.8935 108.806 60.2638 108.545C59.634 108.284 59.0618 107.902 58.5799 107.42C58.0979 106.938 57.7156 106.366 57.4547 105.736C57.1939 105.107 57.0596 104.432 57.0596 103.75C57.0596 103.068 57.1939 102.393 57.4547 101.764C57.7156 101.134 58.0979 100.562 58.5799 100.08L75.6662 83L58.5799 65.9202C57.6065 64.9468 57.0596 63.6266 57.0596 62.25C57.0596 60.8734 57.6065 59.5532 58.5799 58.5798C59.5533 57.6065 60.8735 57.0596 62.25 57.0596C63.6266 57.0596 64.9468 57.6065 65.9202 58.5798L83 75.6662L100.08 58.5798C100.562 58.0979 101.134 57.7155 101.764 57.4547C102.393 57.1939 103.068 57.0596 103.75 57.0596C104.432 57.0596 105.107 57.1939 105.736 57.4547C106.366 57.7155 106.938 58.0979 107.42 58.5798C107.902 59.0618 108.284 59.634 108.545 60.2637C108.806 60.8935 108.94 61.5684 108.94 62.25C108.94 62.9316 108.806 63.6065 108.545 64.2363C108.284 64.866 107.902 65.4382 107.42 65.9202L90.3339 83L107.42 100.08Z" fill="white"/>
</svg>
